
<svg class="animated" id="freepik_stories-hydratation" xmlns="http://www.w3.org/2000/svg" viewBox="0 0 500 500" version="1.1" xmlns:xlink="http://www.w3.org/1999/xlink" xmlns:svgjs="http://svgjs.com/svgjs"><g id="freepik--Floor--inject-82" style="transform-origin: 249.995px 346.169px 0px;" class="animable"><path id="freepik--floor--inject-82" d="M77.66,246.66c-95.18,55-95.17,144,0,199s249.49,55,344.67,0,95.17-144,0-199S172.84,191.71,77.66,246.66Z" style="fill: rgb(250, 250, 250); transform-origin: 249.995px 346.169px 0px;" class="animable"></path></g><g id="freepik--Shadows--inject-82" style="transform-origin: 252.328px 335.25px 0px;" class="animable"><path id="freepik--Shadow--inject-82" d="M128.67,363.19c-22.47,13-58.89,13-81.35,0s-22.47-34,0-47,58.88-13,81.35,0S151.13,350.22,128.67,363.19Z" style="fill: rgb(224, 224, 224); transform-origin: 87.995px 339.69px 0px;" class="animable"></path><path id="freepik--shadow--inject-82" d="M373.63,353.35c23,12.75,60.29,12.75,83.3,0s23-33.46,0-46.22-60.29-12.76-83.3,0S350.64,340.58,373.63,353.35Z" style="fill: rgb(224, 224, 224); transform-origin: 415.282px 330.236px 0px;" class="animable"></path></g><g id="freepik--Glass--inject-82" style="transform-origin: 415.269px 247.99px 0px;" class="animable"><g id="freepik--glass--inject-82" style="transform-origin: 415.269px 247.99px 0px;" class="animable"><path d="M364.2,187l4.55,119.38v0a15.37,15.37,0,0,0,1.38,5.76c2,4.43,6.05,8.61,12.24,12.08,18.17,10.16,47.63,10.16,65.81,0,6.18-3.47,10.25-7.65,12.22-12.08a15.6,15.6,0,0,0,1.34-5v-.06a9.37,9.37,0,0,0,.05-1.5v-.07l4.49-118.44a20.73,20.73,0,0,0,3.84-10.92l-5.47,147.3,0,1.62c-.55,6.85-5.35,13.61-14.41,18.84-19.28,11.14-50.55,11.14-69.84,0-9.41-5.43-14.23-12.52-14.45-19.64v-.52l-5.47-147.6A20.61,20.61,0,0,0,364.2,187Z" style="fill: rgb(240, 240, 240); transform-origin: 415.3px 264.208px 0px;" id="el98gsd3op4m" class="animable"></path><path d="M376.47,197.81c21.43,12.37,56.18,12.37,77.6,0a36.85,36.85,0,0,0,12.21-10.72l-4.49,118.44v.07l-.05,1.5v.06a15.6,15.6,0,0,1-1.34,5c-2,4.43-6,8.61-12.22,12.08-18.18,10.16-47.64,10.16-65.81,0-6.19-3.47-10.26-7.65-12.24-12.08a15.37,15.37,0,0,1-1.38-5.76v0L364.2,187A36.87,36.87,0,0,0,376.47,197.81Z" style="fill: rgb(230, 230, 230); transform-origin: 415.24px 259.43px 0px;" id="elioqnz2gyqts" class="animable"></path><path d="M461.78,306.79c-.41,6.35-4.94,12.63-13.6,17.48-18.18,10.16-47.64,10.16-65.81,0-8.67-4.85-13.2-11.13-13.6-17.48l-3.85-100c-.42-7.44,4.49-15,14.73-20.64,19.67-10.91,51.57-10.91,71.24,0,10.24,5.68,15.15,13.2,14.73,20.64Z" style="fill: rgb(17, 153, 142); transform-origin: 415.27px 254.929px 0px;" id="elbiszbndndda" class="animable"></path><g id="elu3jc3mc7btm"><path d="M461.78,306.79c-.41,6.35-4.94,12.63-13.6,17.48-18.18,10.16-47.64,10.16-65.81,0-8.67-4.85-13.2-11.13-13.6-17.48l-3.85-100c-.42-7.44,4.49-15,14.73-20.64,19.67-10.91,51.57-10.91,71.24,0,10.24,5.68,15.15,13.2,14.73,20.64Z" style="fill: rgb(255, 255, 255); opacity: 0.45; transform-origin: 415.27px 254.929px 0px;" class="animable"></path></g><g id="eloquqo0cxug"><path d="M446.19,322.19c-17.07,9-44.76,9-61.84,0s-17.08-23.65,0-32.67,44.77-9,61.84,0S463.27,313.17,446.19,322.19Z" style="fill: rgb(17, 153, 142); opacity: 0.3; transform-origin: 415.268px 305.851px 0px;" class="animable"></path></g><g id="elnxl5mhvfqy"><path d="M450.89,225.65c-19.67,10.91-51.57,10.91-71.24,0s-19.67-28.61,0-39.53,51.57-10.91,71.24,0S470.57,214.73,450.89,225.65Z" style="fill: rgb(255, 255, 255); opacity: 0.7; transform-origin: 415.272px 205.883px 0px;" class="animable"></path></g><g id="freepik--frozen-stawberry--inject-82" style="transform-origin: 397.948px 248.815px 0px;" class="animable"><g id="freepik--ice-cube--inject-82" style="transform-origin: 397.948px 248.815px 0px;" class="animable"><path d="M416.4,224.84l-21.71-6.11a9.44,9.44,0,0,0-8.29,2.11l-16.15,15.74a9.43,9.43,0,0,0-2.31,8.23l5.55,21.85a9.48,9.48,0,0,0,6,6.13l21.71,6.11a9.44,9.44,0,0,0,8.29-2.11l16.15-15.74a9.46,9.46,0,0,0,2.32-8.23L422.37,231A9.45,9.45,0,0,0,416.4,224.84Z" style="fill: rgb(17, 153, 142); transform-origin: 397.948px 248.815px 0px;" id="elvja3xv5tnkd" class="animable"></path><g id="eld9laaiui988"><path d="M416.4,224.84l-21.71-6.11a9.44,9.44,0,0,0-8.29,2.11l-16.15,15.74a9.43,9.43,0,0,0-2.31,8.23l5.55,21.85a9.48,9.48,0,0,0,6,6.13l21.71,6.11a9.44,9.44,0,0,0,8.29-2.11l16.15-15.74a9.46,9.46,0,0,0,2.32-8.23L422.37,231A9.45,9.45,0,0,0,416.4,224.84Z" style="fill: rgb(255, 255, 255); opacity: 0.8; transform-origin: 397.948px 248.815px 0px;" class="animable"></path></g><path d="M405.31,277.83a8.17,8.17,0,0,1-4.07.07l-21.31-6a8.73,8.73,0,0,1-5.53-5.67l-5.46-21.46a8.78,8.78,0,0,1,2.15-7.62L387,221.69a8,8,0,0,1,3.6-1.89,8.17,8.17,0,0,1,4.07-.07l21.31,6a8.73,8.73,0,0,1,5.53,5.67l5.46,21.46a8.75,8.75,0,0,1-2.15,7.62l-15.86,15.45A7.94,7.94,0,0,1,405.31,277.83Z" style="fill: rgb(17, 153, 142); transform-origin: 397.956px 248.815px 0px;" id="elwl8ipw1701" class="animable"></path><g id="elf6os4r45f5g"><path d="M405.31,277.83a8.17,8.17,0,0,1-4.07.07l-21.31-6a8.73,8.73,0,0,1-5.53-5.67l-5.46-21.46a8.78,8.78,0,0,1,2.15-7.62L387,221.69a8,8,0,0,1,3.6-1.89,8.17,8.17,0,0,1,4.07-.07l21.31,6a8.73,8.73,0,0,1,5.53,5.67l5.46,21.46a8.75,8.75,0,0,1-2.15,7.62l-15.86,15.45A7.94,7.94,0,0,1,405.31,277.83Z" style="fill: rgb(255, 255, 255); opacity: 0.6; transform-origin: 397.956px 248.815px 0px;" class="animable"></path></g><path d="M397.34,246.5a7.72,7.72,0,0,1-3.81.07l-21.32-6a1.63,1.63,0,0,1-.78-3.07L387.29,222a7.66,7.66,0,0,1,3.38-1.76,7.76,7.76,0,0,1,3.82-.07l21.31,6c.89.25,1.47.69,1.61,1.22a2.11,2.11,0,0,1-.83,1.85l-15.85,15.46A7.8,7.8,0,0,1,397.34,246.5Z" style="fill: rgb(17, 153, 142); transform-origin: 393.99px 233.37px 0px;" id="elc7arixi4fiw" class="animable"></path><g id="el97dennx64z"><path d="M397.34,246.5a7.72,7.72,0,0,1-3.81.07l-21.32-6a1.63,1.63,0,0,1-.78-3.07L387.29,222a7.66,7.66,0,0,1,3.38-1.76,7.76,7.76,0,0,1,3.82-.07l21.31,6c.89.25,1.47.69,1.61,1.22a2.11,2.11,0,0,1-.83,1.85l-15.85,15.46A7.8,7.8,0,0,1,397.34,246.5Z" style="fill: rgb(255, 255, 255); opacity: 0.85; transform-origin: 393.99px 233.37px 0px;" class="animable"></path></g><path d="M407.34,276.37c-1.19.3-1.67-1-1.82-1.63l-5.45-21.46a8.36,8.36,0,0,1,2-7.16l15.86-15.45a2.81,2.81,0,0,1,1.24-.78c1.18-.3,1.66,1.05,1.81,1.64L426.45,253a8.34,8.34,0,0,1-2,7.15L408.57,275.6a2.9,2.9,0,0,1-1.23.77Z" style="fill: rgb(17, 153, 142); transform-origin: 413.26px 253.131px 0px;" id="elydu2jegj17j" class="animable"></path><g id="elcy94w6tuyaf"><path d="M407.34,276.37c-1.19.3-1.67-1-1.82-1.63l-5.45-21.46a8.36,8.36,0,0,1,2-7.16l15.86-15.45a2.81,2.81,0,0,1,1.24-.78c1.18-.3,1.66,1.05,1.81,1.64L426.45,253a8.34,8.34,0,0,1-2,7.15L408.57,275.6a2.9,2.9,0,0,1-1.23.77Z" style="fill: rgb(255, 255, 255); opacity: 0.75; transform-origin: 413.26px 253.131px 0px;" class="animable"></path></g><path d="M402.83,277.52a2.89,2.89,0,0,1-1.46-.09l-21.31-6a8.35,8.35,0,0,1-5.19-5.32l-5.46-21.46c-.15-.59-.37-2,.82-2.3a2.84,2.84,0,0,1,1.45.09l21.32,6a8.4,8.4,0,0,1,5.19,5.32l5.45,21.47C403.79,275.81,404,277.21,402.83,277.52Z" style="fill: rgb(17, 153, 142); transform-origin: 386.524px 259.935px 0px;" id="ell9b63s93aq" class="animable"></path><g id="el01rk2sy4sr1k"><path d="M402.83,277.52a2.89,2.89,0,0,1-1.46-.09l-21.31-6a8.35,8.35,0,0,1-5.19-5.32l-5.46-21.46c-.15-.59-.37-2,.82-2.3a2.84,2.84,0,0,1,1.45.09l21.32,6a8.4,8.4,0,0,1,5.19,5.32l5.45,21.47C403.79,275.81,404,277.21,402.83,277.52Z" style="fill: rgb(255, 255, 255); opacity: 0.65; transform-origin: 386.524px 259.935px 0px;" class="animable"></path></g><g id="el9tp12kr09ue"><path d="M405.24,277.32a7.76,7.76,0,0,1-3.82.07l-21.31-6c-.89-.25-1.48-.69-1.61-1.22a2.09,2.09,0,0,1,.83-1.85l15.85-15.46a7.8,7.8,0,0,1,3.39-1.76,7.72,7.72,0,0,1,3.81-.07l21.32,6c.88.25,1.47.69,1.61,1.22a2.11,2.11,0,0,1-.83,1.85l-15.86,15.46A7.66,7.66,0,0,1,405.24,277.32Z" style="fill: rgb(17, 153, 142); opacity: 0.2; transform-origin: 401.905px 264.21px 0px;" class="animable"></path></g><g id="elqeqm4po8d2i"><path d="M392.87,221.46a1.48,1.48,0,0,0-.67.25c-.46.35-.26,1.16-.18,1.64.19,1.16,3.27,13.42,3.48,14.57a.44.44,0,0,1,0,.32.3.3,0,0,1-.43,0c-.26-.21-.3-.65-.38-1s-3-11.88-3.13-12.26c-.19-.75-.38-1.5-.58-2.25a1.08,1.08,0,0,0-.24-.53c-.8-.76-2.24.3-2.79.55a.5.5,0,0,1-.2.08.23.23,0,0,1-.21-.07.31.31,0,0,1,0-.32,5.59,5.59,0,0,1,1.31-1.1,6.46,6.46,0,0,1,2-.78,7.19,7.19,0,0,1,3.32,0c.75.14,1.5.3,2.23.49s1.4.36,2.08.59c.14.05.27.19.1.28s-.49,0-.65,0c-.51-.06-1-.16-1.5-.26A9.24,9.24,0,0,0,392.87,221.46Z" style="fill: rgb(17, 153, 142); opacity: 0.3; transform-origin: 393.078px 229.348px 0px;" class="animable"></path></g><g id="el5hpmaime1e6"><path d="M399,222c-.18.28.51.33.63.31s.17-.21,0-.29a.81.81,0,0,0-.48-.09C399.12,221.94,399.06,222,399,222Z" style="fill: rgb(17, 153, 142); opacity: 0.3; transform-origin: 399.355px 222.119px 0px;" class="animable"></path></g><g id="el2avvguc8fos"><path d="M400.88,262.66l.32,1.23c.07.26.19.57.46.59a.45.45,0,0,0,.43-.37,1.37,1.37,0,0,0-.06-.6c-.09-.4-.25-1.4-.67-1.61S400.77,262.26,400.88,262.66Z" style="fill: rgb(17, 153, 142); opacity: 0.3; transform-origin: 401.474px 263.167px 0px;" class="animable"></path></g><g id="elfu0o9vhavd"><path d="M404.11,276.05a.86.86,0,0,1-.47.87,2.13,2.13,0,0,1-.87.19l-1.73.15c-.07,0-.16,0-.18.09s.09.15.17.17a8.69,8.69,0,0,0,4,.13,9.48,9.48,0,0,0,3.95-2c1.07-.9,2.07-2,3.05-3,.13-.12.45-.73.15-.57a8.07,8.07,0,0,0-.88.75,30,30,0,0,1-2.32,2,7.54,7.54,0,0,1-2.74,1.38c-.57.14-.88-.2-1.05-.72-.83-2.6-1.44-5.27-2.19-7.89-.08-.3-.28-1-.76-.88s-.09.91,0,1.24c.3,1.28.61,2.55.91,3.83.23,1,.47,2,.7,2.93A7.52,7.52,0,0,1,404.11,276.05Z" style="fill: rgb(17, 153, 142); opacity: 0.3; transform-origin: 406.581px 272.265px 0px;" class="animable"></path></g><g id="elxdlab3q8zra"><path d="M369.48,243a6.55,6.55,0,0,0,.2,1.16c.45,1.85.81,3.75,1.39,5.57a.76.76,0,0,0,.11.22.2.2,0,0,0,.21.07c.13,0,.16-.19.16-.32a9.37,9.37,0,0,0-.33-1.74c-.11-.66-.23-1.31-.35-2a4.37,4.37,0,0,1-.07-1.61c.29-1.39,1.86-1.52,3-1.35,1.62.25,3.18.79,4.79,1.08a.75.75,0,0,0,.67-.1c0-.16-.18-.27-.33-.34a36.33,36.33,0,0,0-7.11-2.18,2.61,2.61,0,0,0-1.7.12,1.28,1.28,0,0,0-.65,1.27Z" style="fill: rgb(255, 255, 255); opacity: 0.65; transform-origin: 374.361px 245.699px 0px;" class="animable"></path></g><g id="elbartee6y259"><path d="M413.49,228.77a1.33,1.33,0,0,0-.78.12,18,18,0,0,0-3.79,2.09c-1.85,1.22-3.69,2.45-5.54,3.66a60.72,60.72,0,0,1-5.27,3.26,13.64,13.64,0,0,1-4.27,1.48,15.44,15.44,0,0,1-5.32-.43c-1.36-.3-2.71-.64-4-1a6.14,6.14,0,0,1-2-.88,3.86,3.86,0,0,1-1.41-2.89,6.1,6.1,0,0,1,.82-3.17c.21-.38.59-1,.13-1.4s-1.44.65-1.77,1c-.72.72-1.43,1.44-2.14,2.17q-2.13,2.17-4.21,4.39c-.58.61-1.17,1.59-.6,2.21a1.78,1.78,0,0,0,.77.4q9.72,3,19.63,5.46a6.15,6.15,0,0,0,3.34.18,6,6,0,0,0,2-1.25c1-.81,1.93-1.63,2.89-2.47,2.06-1.82,4.07-3.7,6-5.66s3.86-3.74,5.64-5.76a1.68,1.68,0,0,0,.39-.6A.68.68,0,0,0,413.49,228.77Zm2.14-1.43a.7.7,0,0,0-.21-.24.88.88,0,0,0-.59-.16.75.75,0,0,0-.63.42.62.62,0,0,0,.07.59,1,1,0,0,0,.61.3.83.83,0,0,0,.67-.15A.62.62,0,0,0,415.63,227.34Z" style="fill: rgb(255, 255, 255); opacity: 0.65; transform-origin: 394.416px 236.253px 0px;" class="animable"></path></g><g id="elymthhnbp9el"><path d="M422,248c.22,1.29.42,2.58.61,3.87a8.27,8.27,0,0,1-.73,5.67,36.68,36.68,0,0,1-3.89,5.2c-2.17,2.51-3.94,4.41-6.32,7.4a1.29,1.29,0,0,0-.37,1.17c.78.27,1.73-.9,2.21-1.39l8.68-8.84a10.94,10.94,0,0,0,2.76-3.77c.68-1.92.25-4-.19-6-.67-3-1.33-6-2-9.06-.34-1.53-.68-3.06-1-4.59-.14-.6-.6-2.5-.79-3.1-.42-1.32-1.07.54-.93,1.46.22,1.43.59,4.32,1.11,6.84C421.42,244.19,421.75,246.54,422,248Z" style="fill: rgb(255, 255, 255); opacity: 0.65; transform-origin: 418.291px 252.726px 0px;" class="animable"></path></g><g id="elok6s9aprtao"><path d="M391.11,273.36c1.9.53,3.82,1,5.77,1.39s4.72.56,4.57-2.19a20.62,20.62,0,0,0-.74-4q-1.8-7.1-3.61-14.19a2.92,2.92,0,0,0-.6-1.34,1,1,0,0,0-1.33-.19,1.5,1.5,0,0,0-.37,1c-.21,2.13-.19,4.5-.39,6.63-.17,1.82-.26,3.4-1.83,4.65a6.38,6.38,0,0,1-1.72.89,21,21,0,0,1-5.82,1.17,41.68,41.68,0,0,1-4.18-.06c-.76,0-3.11-.56-3.55.3-.24.47.2.92.47,1.26a3,3,0,0,0,1.34.82c1.81.74,3.73,1.27,5.59,1.85C386.84,272.08,389,272.76,391.11,273.36Z" style="fill: rgb(255, 255, 255); opacity: 0.65; transform-origin: 389.348px 263.819px 0px;" class="animable"></path></g></g></g><g id="freepik--frozen-stawberry--inject-82" style="transform-origin: 429.652px 290.031px 0px;" class="animable"><g id="freepik--ice-cube--inject-82" style="transform-origin: 429.652px 290.031px 0px;" class="animable"><path d="M411.16,266.06l21.7-6.11a9.45,9.45,0,0,1,8.29,2.1L457.3,277.8a9.42,9.42,0,0,1,2.32,8.23l-5.56,21.85a9.43,9.43,0,0,1-6,6.13l-21.7,6.11A9.43,9.43,0,0,1,418.1,318L402,302.27a9.46,9.46,0,0,1-2.32-8.23l5.56-21.85A9.43,9.43,0,0,1,411.16,266.06Z" style="fill: rgb(17, 153, 142); transform-origin: 429.652px 290.031px 0px;" id="el6zaoim2f6fg" class="animable"></path><g id="ell2nszob5t8"><path d="M411.16,266.06l21.7-6.11a9.45,9.45,0,0,1,8.29,2.1L457.3,277.8a9.42,9.42,0,0,1,2.32,8.23l-5.56,21.85a9.43,9.43,0,0,1-6,6.13l-21.7,6.11A9.43,9.43,0,0,1,418.1,318L402,302.27a9.46,9.46,0,0,1-2.32-8.23l5.56-21.85A9.43,9.43,0,0,1,411.16,266.06Z" style="fill: rgb(255, 255, 255); opacity: 0.8; transform-origin: 429.652px 290.031px 0px;" class="animable"></path></g><path d="M422.25,319.05a8,8,0,0,0,4.07.06l21.31-6a8.74,8.74,0,0,0,5.52-5.67L458.61,286a8.78,8.78,0,0,0-2.14-7.62L440.61,262.9a8.86,8.86,0,0,0-7.67-1.95l-21.32,6a8.74,8.74,0,0,0-5.52,5.67l-5.46,21.46a8.75,8.75,0,0,0,2.15,7.62l15.85,15.45A8,8,0,0,0,422.25,319.05Z" style="fill: rgb(17, 153, 142); transform-origin: 429.625px 290.046px 0px;" id="elk7dsjntzm1" class="animable"></path><g id="elxd070jzzucd"><path d="M422.25,319.05a8,8,0,0,0,4.07.06l21.31-6a8.74,8.74,0,0,0,5.52-5.67L458.61,286a8.78,8.78,0,0,0-2.14-7.62L440.61,262.9a8.86,8.86,0,0,0-7.67-1.95l-21.32,6a8.74,8.74,0,0,0-5.52,5.67l-5.46,21.46a8.75,8.75,0,0,0,2.15,7.62l15.85,15.45A8,8,0,0,0,422.25,319.05Z" style="fill: rgb(255, 255, 255); opacity: 0.6; transform-origin: 429.625px 290.046px 0px;" class="animable"></path></g><path d="M430.22,287.72a7.72,7.72,0,0,0,3.81.07l21.32-6c.88-.25,1.47-.7,1.6-1.23a2.06,2.06,0,0,0-.82-1.84l-15.86-15.46a8.34,8.34,0,0,0-7.2-1.83l-21.32,6c-.88.25-1.47.69-1.6,1.22a2.08,2.08,0,0,0,.82,1.85L426.83,286A7.71,7.71,0,0,0,430.22,287.72Z" style="fill: rgb(17, 153, 142); transform-origin: 433.55px 274.619px 0px;" id="elywyoyms2n3" class="animable"></path><g id="eldmukw7n1wd"><path d="M430.22,287.72a7.72,7.72,0,0,0,3.81.07l21.32-6c.88-.25,1.47-.7,1.6-1.23a2.06,2.06,0,0,0-.82-1.84l-15.86-15.46a8.34,8.34,0,0,0-7.2-1.83l-21.32,6c-.88.25-1.47.69-1.6,1.22a2.08,2.08,0,0,0,.82,1.85L426.83,286A7.71,7.71,0,0,0,430.22,287.72Z" style="fill: rgb(255, 255, 255); opacity: 0.85; transform-origin: 433.55px 274.619px 0px;" class="animable"></path></g><path d="M420.22,317.59c1.19.3,1.66-1,1.81-1.63l5.46-21.47a8.38,8.38,0,0,0-2-7.15l-15.86-15.45a2.92,2.92,0,0,0-1.24-.78c-1.18-.3-1.66,1-1.81,1.64l-5.46,21.46a8.37,8.37,0,0,0,2,7.15L419,316.82a3,3,0,0,0,1.24.77Z" style="fill: rgb(17, 153, 142); transform-origin: 414.305px 294.35px 0px;" id="eljzexp8i5ur" class="animable"></path><g id="el9mp0rjq7r4o"><path d="M420.22,317.59c1.19.3,1.66-1,1.81-1.63l5.46-21.47a8.38,8.38,0,0,0-2-7.15l-15.86-15.45a2.92,2.92,0,0,0-1.24-.78c-1.18-.3-1.66,1-1.81,1.64l-5.46,21.46a8.37,8.37,0,0,0,2,7.15L419,316.82a3,3,0,0,0,1.24.77Z" style="fill: rgb(255, 255, 255); opacity: 0.75; transform-origin: 414.305px 294.35px 0px;" class="animable"></path></g><path d="M424.73,318.73a2.73,2.73,0,0,0,1.45-.08l21.32-6a8.31,8.31,0,0,0,5.18-5.32l5.46-21.46c.15-.59.37-2-.81-2.3a2.88,2.88,0,0,0-1.46.09l-21.31,6a8.35,8.35,0,0,0-5.19,5.32l-5.46,21.47C423.76,317,423.54,318.43,424.73,318.73Z" style="fill: rgb(17, 153, 142); transform-origin: 441.025px 301.154px 0px;" id="el5ps1nvob04m" class="animable"></path><g id="elp48wsxar32"><path d="M424.73,318.73a2.73,2.73,0,0,0,1.45-.08l21.32-6a8.31,8.31,0,0,0,5.18-5.32l5.46-21.46c.15-.59.37-2-.81-2.3a2.88,2.88,0,0,0-1.46.09l-21.31,6a8.35,8.35,0,0,0-5.19,5.32l-5.46,21.47C423.76,317,423.54,318.43,424.73,318.73Z" style="fill: rgb(255, 255, 255); opacity: 0.65; transform-origin: 441.025px 301.154px 0px;" class="animable"></path></g><g id="eloyhhmd4zrmh"><path d="M422.32,318.54a7.76,7.76,0,0,0,3.82.07l21.31-6a1.63,1.63,0,0,0,.78-3.07l-15.86-15.46a7.66,7.66,0,0,0-3.38-1.76,7.76,7.76,0,0,0-3.82-.07l-21.31,6c-.89.25-1.47.69-1.61,1.22a2.11,2.11,0,0,0,.83,1.85l15.85,15.46A7.8,7.8,0,0,0,422.32,318.54Z" style="fill: rgb(17, 153, 142); opacity: 0.2; transform-origin: 425.67px 305.43px 0px;" class="animable"></path></g><g id="el6likp2yysj8"><path d="M434.68,262.68a1.52,1.52,0,0,1,.68.25c.45.35.25,1.16.18,1.64-.19,1.16-3.27,13.42-3.48,14.57a.44.44,0,0,0,0,.32.29.29,0,0,0,.42,0c.27-.21.31-.66.39-1s3-11.88,3.12-12.26c.2-.75.39-1.5.59-2.25a1,1,0,0,1,.24-.53c.8-.76,2.24.3,2.78.55a.6.6,0,0,0,.21.08.2.2,0,0,0,.2-.07.31.31,0,0,0,0-.32,5.8,5.8,0,0,0-1.31-1.1,6.46,6.46,0,0,0-2-.78,7.23,7.23,0,0,0-3.33-.05c-.74.14-1.49.3-2.22.49s-1.4.36-2.08.59c-.14.05-.27.18-.1.27s.49,0,.65,0c.5-.06,1-.16,1.49-.26A9.26,9.26,0,0,1,434.68,262.68Z" style="fill: rgb(17, 153, 142); opacity: 0.3; transform-origin: 434.472px 270.555px 0px;" class="animable"></path></g><g id="el3jyqq9lwl64"><path d="M428.52,263.23c.18.28-.52.33-.63.31s-.17-.21,0-.29a.89.89,0,0,1,.48-.1A.23.23,0,0,1,428.52,263.23Z" style="fill: rgb(17, 153, 142); opacity: 0.3; transform-origin: 428.167px 263.346px 0px;" class="animable"></path></g><g id="eld26mymof7tm"><path d="M426.68,303.88c-.11.41-.21.82-.32,1.23-.07.26-.19.57-.46.59a.45.45,0,0,1-.43-.37,1.22,1.22,0,0,1,0-.6c.1-.4.26-1.4.67-1.61S426.78,303.48,426.68,303.88Z" style="fill: rgb(17, 153, 142); opacity: 0.3; transform-origin: 426.068px 304.388px 0px;" class="animable"></path></g><g id="ell3qw5ulgk8"><path d="M423.45,317.27a.85.85,0,0,0,.46.87,2.16,2.16,0,0,0,.87.19l1.74.15c.07,0,.15,0,.17.09s-.08.14-.17.17a8.68,8.68,0,0,1-4,.13,9.54,9.54,0,0,1-3.95-2.05c-1.06-.9-2.06-2-3.05-3-.12-.12-.44-.73-.15-.57a5.89,5.89,0,0,1,.88.75,30.09,30.09,0,0,0,2.33,2,7.54,7.54,0,0,0,2.74,1.38c.57.14.88-.2,1-.72.83-2.6,1.45-5.27,2.19-7.89.09-.3.29-1,.77-.89s.09.92,0,1.25c-.31,1.28-.61,2.55-.91,3.82-.23,1-.47,2-.7,2.94A7.52,7.52,0,0,0,423.45,317.27Z" style="fill: rgb(17, 153, 142); opacity: 0.3; transform-origin: 420.972px 313.456px 0px;" class="animable"></path></g><g id="el4f1a2aq5icb"><path d="M458.07,284.22a5.13,5.13,0,0,1-.2,1.16c-.44,1.85-.8,3.75-1.39,5.57a.58.58,0,0,1-.1.21.19.19,0,0,1-.22.08c-.12,0-.15-.19-.15-.32a9.37,9.37,0,0,1,.33-1.74c.11-.66.23-1.31.34-2a4.17,4.17,0,0,0,.08-1.61c-.29-1.39-1.86-1.52-3-1.35-1.62.24-3.18.79-4.79,1.08a.75.75,0,0,1-.67-.1c0-.16.17-.27.32-.34a36.63,36.63,0,0,1,7.12-2.18,2.58,2.58,0,0,1,1.69.12,1.25,1.25,0,0,1,.65,1.27Z" style="fill: rgb(255, 255, 255); opacity: 0.65; transform-origin: 453.196px 286.92px 0px;" class="animable"></path></g><g id="elg5vj0auv2ev"><path d="M413.6,270.86a1.83,1.83,0,0,0,.39.6c1.79,2,3.76,3.85,5.65,5.76s3.95,3.84,6,5.66c1,.84,1.91,1.66,2.89,2.47a4.66,4.66,0,0,0,5.3,1.07q9.92-2.42,19.64-5.47a1.71,1.71,0,0,0,.77-.39c.57-.62,0-1.6-.6-2.21-1.39-1.48-2.8-2.94-4.21-4.39-.71-.73-1.42-1.45-2.14-2.17-.33-.34-1.2-1.43-1.78-1s-.07,1,.14,1.39a6.26,6.26,0,0,1,.82,3.18,3.86,3.86,0,0,1-1.41,2.89,6,6,0,0,1-2,.87c-1.33.4-2.67.74-4,1a15.44,15.44,0,0,1-5.32.43,13.64,13.64,0,0,1-4.27-1.48,58.47,58.47,0,0,1-5.27-3.27c-1.85-1.2-3.69-2.43-5.54-3.65a18.74,18.74,0,0,0-3.79-2.1,1.41,1.41,0,0,0-.78-.11A.68.68,0,0,0,413.6,270.86Zm-1.6-1.54a.82.82,0,0,0,.68.14.9.9,0,0,0,.6-.29.59.59,0,0,0,.07-.59.74.74,0,0,0-.62-.42.88.88,0,0,0-.59.16.61.61,0,0,0-.21.24A.62.62,0,0,0,412,269.32Z" style="fill: rgb(255, 255, 255); opacity: 0.65; transform-origin: 433.154px 277.491px 0px;" class="animable"></path></g><g id="elaxz72ttomiv"><path d="M405.56,289.17c-.22,1.29-.42,2.58-.61,3.87a8.33,8.33,0,0,0,.72,5.67,37.53,37.53,0,0,0,3.9,5.2c2.17,2.5,3.94,4.41,6.32,7.4a1.31,1.31,0,0,1,.37,1.17c-.78.27-1.74-.9-2.21-1.39l-8.68-8.84a10.94,10.94,0,0,1-2.76-3.77c-.69-1.92-.25-4,.18-6l2-9.07c.33-1.52.67-3.05,1-4.58.13-.6.6-2.5.79-3.1.41-1.32,1.07.54.93,1.46-.22,1.43-.6,4.32-1.11,6.84C406.13,285.41,405.8,287.76,405.56,289.17Z" style="fill: rgb(255, 255, 255); opacity: 0.65; transform-origin: 409.266px 293.896px 0px;" class="animable"></path></g><g id="elryek9hkktn8"><path d="M436.45,314.58c-1.91.53-3.82,1-5.77,1.38s-4.72.57-4.57-2.18a20.46,20.46,0,0,1,.73-4q1.8-7.1,3.62-14.19a3,3,0,0,1,.59-1.34,1,1,0,0,1,1.33-.19,1.51,1.51,0,0,1,.38,1c.2,2.13.18,4.49.39,6.63.17,1.82.25,3.4,1.83,4.65a6.33,6.33,0,0,0,1.71.89,21.42,21.42,0,0,0,5.82,1.17,41.6,41.6,0,0,0,4.18-.06c.77,0,3.12-.56,3.56.3.24.47-.2.92-.48,1.26a3.08,3.08,0,0,1-1.34.82c-1.8.74-3.72,1.27-5.58,1.85C440.71,313.3,438.59,314,436.45,314.58Z" style="fill: rgb(255, 255, 255); opacity: 0.65; transform-origin: 438.212px 305.033px 0px;" class="animable"></path></g></g></g><g id="elgeeoxp7qr9c"><path d="M457.3,277.8l-16.15-15.75a9.45,9.45,0,0,0-8.29-2.1l-8.61,2.42,1.36-1.32a9.46,9.46,0,0,0,2.32-8.23L422.37,231a9.45,9.45,0,0,0-6-6.13l-21.71-6.11a9.44,9.44,0,0,0-8.29,2.11l-16.14,15.74a9.4,9.4,0,0,0-2.32,8.23l5.55,21.85a9.48,9.48,0,0,0,6,6.13l21.71,6.11a7.17,7.17,0,0,0,2.25.24L399.63,294a9.46,9.46,0,0,0,2.32,8.23L418.1,318a9.43,9.43,0,0,0,8.29,2.11l21.7-6.11a9.43,9.43,0,0,0,6-6.13L459.62,286A9.42,9.42,0,0,0,457.3,277.8Z" style="fill: rgb(17, 153, 142); opacity: 0.15; transform-origin: 413.762px 269.435px 0px;" class="animable"></path></g><g id="eljj8vgpdb88c"><path d="M422.37,231a9.45,9.45,0,0,0-6-6.13l-21.71-6.11a9.44,9.44,0,0,0-8.29,2.11l-5.57,5.43c11.7,6.09,27.35,8.5,42.18,7.23Z" style="fill: rgb(255, 255, 255); opacity: 0.8; transform-origin: 401.89px 226.194px 0px;" class="animable"></path></g><g id="elpa9mpevip3i"><path d="M379.65,225.65c17.05,9.45,43.28,10.71,62.78,3.77-27.16,4.73-52.66-7.93-50.43-24.24a9.26,9.26,0,0,1,.18-1,65.23,65.23,0,0,1-15.71-6.34,45.93,45.93,0,0,1-6.31-4.36C360.78,203.9,363.94,216.94,379.65,225.65Z" style="fill: rgb(17, 153, 142); opacity: 0.2; transform-origin: 403.664px 213.653px 0px;" class="animable"></path></g><path d="M360.41,176v.21A20.61,20.61,0,0,0,364.2,187a36.87,36.87,0,0,0,12.27,10.8c21.43,12.37,56.18,12.37,77.6,0a36.85,36.85,0,0,0,12.21-10.72,20.73,20.73,0,0,0,3.84-10.92c.35-8.36-5-16.78-16.05-23.16-21.42-12.38-56.17-12.38-77.6,0C365.52,159.33,360.16,167.67,360.41,176Zm18.52-20.71c20.08-11.14,52.61-11.14,72.69,0s20.06,29.19,0,40.32-52.61,11.13-72.69,0S358.86,166.38,378.93,155.25Z" style="fill: rgb(250, 250, 250); transform-origin: 415.269px 175.396px 0px;" id="elnby2r4bftus" class="animable"></path><path d="M378.93,195.57c20.08,11.13,52.61,11.13,72.69,0s20.06-29.19,0-40.32-52.61-11.14-72.69,0S358.86,184.44,378.93,195.57Z" style="fill: rgb(230, 230, 230); transform-origin: 415.273px 175.408px 0px;" id="elryo2lfj2j2s" class="animable"></path><path d="M458.1,191.18a42.09,42.09,0,0,1-6.48,4.39c-20.08,11.13-52.61,11.13-72.69,0a41.72,41.72,0,0,1-6.49-4.39,39.47,39.47,0,0,1,7.21-5.06c19.67-10.91,51.57-10.91,71.24,0A39.13,39.13,0,0,1,458.1,191.18Z" style="fill: rgb(17, 153, 142); transform-origin: 415.27px 190.927px 0px;" id="els05jmm7mz0s" class="animable"></path><g id="elf2lkdwf290a"><path d="M458.1,191.18a42.09,42.09,0,0,1-6.48,4.39c-20.08,11.13-52.61,11.13-72.69,0a41.72,41.72,0,0,1-6.49-4.39,39.47,39.47,0,0,1,7.21-5.06c19.67-10.91,51.57-10.91,71.24,0A39.13,39.13,0,0,1,458.1,191.18Z" style="fill: rgb(255, 255, 255); opacity: 0.65; transform-origin: 415.27px 190.927px 0px;" class="animable"></path></g><g id="elt3wz2qttxs"><path d="M450.89,186.12c-.61-.34-1.24-.68-1.87-1l-.1,0c-1-.48-2-1-3.06-1.39a72.55,72.55,0,0,0-18.25-4.9c-1.73-.24-3.49-.44-5.27-.57q-2.26-.19-4.56-.24c-.84,0-1.67,0-2.51,0q-2.41,0-4.83.12a83.39,83.39,0,0,0-16.38,2.47,61.36,61.36,0,0,0-14.41,5.59c-.67.38-1.32.76-1.94,1.15l-.37.23c-.51.33-1,.66-1.51,1l-.24.17c-.53.39-1,.76-1.53,1.15l-.09.07q-.8.63-1.53,1.29a42.43,42.43,0,0,0,6.49,4.39,61.86,61.86,0,0,0,14.24,5.59C399.47,187.24,427.58,179.16,450.89,186.12Z" style="fill: rgb(17, 153, 142); opacity: 0.2; transform-origin: 411.665px 189.63px 0px;" class="animable"></path></g><path d="M369,313.4l.3,9.13,0,.65c.62,13.56,21,24.45,46,24.45s45.23-10.82,46-24.33l0-.8.29-9.2C459.11,326.06,439.31,336,415.27,336S371.54,326.11,369,313.4Z" style="fill: rgb(250, 250, 250); transform-origin: 415.295px 330.465px 0px;" id="elo19rbzca9j8" class="animable"></path><g id="el9xfqi4fc5l"><path d="M446.35,325.2c-18.27,9.18-46.4,8.91-64-.94-8.64-4.86-13.19-11.12-13.59-17.47l-3.79-98,.19.05c.8,4.28,3.37,8.46,7.74,12.24,1.7,36.86,2,72.51,12.42,84.8C395.29,317.62,421.37,334.47,446.35,325.2Z" style="fill: rgb(17, 153, 142); opacity: 0.2; transform-origin: 405.66px 270.332px 0px;" class="animable"></path></g></g></g><g id="freepik--Bottle--inject-82" style="transform-origin: 88.005px 210.624px 0px;" class="animable"><g id="freepik--bottle-of-water--inject-82" style="transform-origin: 88.005px 210.624px 0px;" class="animable"><g id="freepik--bottle-of-water--inject-82" style="transform-origin: 88.005px 210.624px 0px;" class="animable"><g id="freepik--bottle--inject-82" style="transform-origin: 88.005px 227.806px 0px;" class="animable"><path d="M136,147.5h0c0-18.07-16.58-35.29-23.81-42.1-3.85-3.62-6.21-5.38-7.28-7.63-.94-2-.81-3.09-.81-6.92H71.89c0,3.83.13,4.93-.81,6.92-1.07,2.25-3.43,4-7.27,7.63-7.23,6.81-23.82,24-23.82,42.1h0a16.5,16.5,0,0,0,.75,4.89,16.56,16.56,0,0,0-.75,4.9h0v7.79h0a16.31,16.31,0,0,0,.66,4.58,16.2,16.2,0,0,0-.63,5.2h0v9.74a16,16,0,0,0,2.81,9.06l2.09,3.05a16,16,0,0,1,1,16.49L41.81,221A16,16,0,0,0,40,228.41V337.07h0c0,7.09,4.69,14.18,14.06,19.59,18.75,10.83,49.14,10.83,67.88,0,9.38-5.42,14.06-12.51,14.06-19.6h0V228.41a16,16,0,0,0-1.82-7.42l-4.06-7.79a16.07,16.07,0,0,1,1-16.49l2.09-3.05A16,16,0,0,0,136,184.6v-9.74h0a16.49,16.49,0,0,0-.64-5.2,16.31,16.31,0,0,0,.66-4.58h0v-7.79h0a16.56,16.56,0,0,0-.75-4.9,16.5,16.5,0,0,0,.75-4.89Z" style="fill: rgb(17, 153, 142); transform-origin: 88.005px 227.816px 0px;" id="eldvqxhkxg4kp" class="animable"></path><g id="elywa0f5lco3"><path d="M136,147.5h0c0-18.07-16.58-35.29-23.81-42.1-3.85-3.62-6.21-5.38-7.28-7.63-.94-2-.81-3.09-.81-6.92H71.89c0,3.83.13,4.93-.81,6.92-1.07,2.25-3.43,4-7.27,7.63-7.23,6.81-23.82,24-23.82,42.1h0a16.5,16.5,0,0,0,.75,4.89,16.56,16.56,0,0,0-.75,4.9h0v7.79h0a16.31,16.31,0,0,0,.66,4.58,16.2,16.2,0,0,0-.63,5.2h0v9.74a16,16,0,0,0,2.81,9.06l2.09,3.05a16,16,0,0,1,1,16.49L41.81,221A16,16,0,0,0,40,228.41V337.07h0c0,7.09,4.69,14.18,14.06,19.59,18.75,10.83,49.14,10.83,67.88,0,9.38-5.42,14.06-12.51,14.06-19.6h0V228.41a16,16,0,0,0-1.82-7.42l-4.06-7.79a16.07,16.07,0,0,1,1-16.49l2.09-3.05A16,16,0,0,0,136,184.6v-9.74h0a16.49,16.49,0,0,0-.64-5.2,16.31,16.31,0,0,0,.66-4.58h0v-7.79h0a16.56,16.56,0,0,0-.75-4.9,16.5,16.5,0,0,0,.75-4.89Z" style="fill: rgb(255, 255, 255); opacity: 0.5; transform-origin: 88.005px 227.816px 0px;" class="animable"></path></g><path d="M40,165.08c0,7.09,4.69,14.19,14.06,19.6,18.75,10.82,49.14,10.82,67.88,0,9.38-5.41,14.06-12.51,14.06-19.6v-7.8c0,7.09-4.68,14.18-14.06,19.59-18.74,10.83-49.13,10.83-67.88,0C44.68,171.46,40,164.37,40,157.28Z" style="fill: rgb(17, 153, 142); transform-origin: 88px 175.038px 0px;" id="eljt4wneqil5" class="animable"></path><path d="M40,184.79c0,7.09,4.69,14.18,14.06,19.59,18.75,10.83,49.14,10.83,67.88,0C131.31,199,136,191.88,136,184.79V174.24c0,7.1-4.68,14.19-14.06,19.6-18.74,10.82-49.13,10.82-67.88,0C44.68,188.43,40,181.34,40,174.24Z" style="fill: rgb(17, 153, 142); transform-origin: 88px 193.371px 0px;" id="elaevdo8dgr1" class="animable"></path><path d="M136,147.49a15.93,15.93,0,0,1-.19,2.48c0,.19-.06.37-.1.56a15.71,15.71,0,0,1-.45,1.86c-1.66,5.4-6.1,10.55-13.32,14.71-18.75,10.83-49.13,10.82-67.88,0-7.22-4.17-11.64-9.32-13.32-14.71a2.33,2.33,0,0,0-.07-.25l-.18-.66a16.81,16.81,0,0,1-.49-4c0-18.08,16.59-35.29,23.82-42.1,3.84-3.61,6.2-5.38,7.28-7.63.94-2,.8-3.09.8-6.92h32.2c0,3.83-.13,4.93.81,6.92,1.07,2.25,3.43,4,7.28,7.63C119.4,112.21,136,129.42,136,147.49Z" style="fill: rgb(17, 153, 142); transform-origin: 88px 133.024px 0px;" id="elor5ir93ktn" class="animable"></path><path d="M119,238.05c-17.1,9.87-44.83,9.87-61.94,0-11.69-6.74-15.39-16.35-11.11-24.91h0a.25.25,0,0,1,0,.07L41.81,221A16,16,0,0,0,40,228.41V337.07c0,7.09,4.69,14.18,14.06,19.59,18.75,10.83,49.14,10.83,67.88,0,9.38-5.42,14.06-12.51,14.06-19.6V228.41a16,16,0,0,0-1.82-7.42l-4.06-7.79s0,0,0-.07h0C134.35,221.69,130.65,231.3,119,238.05Z" style="fill: rgb(17, 153, 142); transform-origin: 88px 288.956px 0px;" id="ely3pzf1l614" class="animable"></path><g id="elh5xvx5n5di9"><g style="opacity: 0.7; transform-origin: 88px 227.806px 0px;" class="animable"><path d="M40,165.08c0,7.09,4.69,14.19,14.06,19.6,18.75,10.82,49.14,10.82,67.88,0,9.38-5.41,14.06-12.51,14.06-19.6v-7.8c0,7.09-4.68,14.18-14.06,19.59-18.74,10.83-49.13,10.83-67.88,0C44.68,171.46,40,164.37,40,157.28Z" style="fill: rgb(255, 255, 255); transform-origin: 88px 175.038px 0px;" id="el58w9wg0817e" class="animable"></path><path d="M40,184.79c0,7.09,4.69,14.18,14.06,19.59,18.75,10.83,49.14,10.83,67.88,0C131.31,199,136,191.88,136,184.79V174.24c0,7.1-4.68,14.19-14.06,19.6-18.74,10.82-49.13,10.82-67.88,0C44.68,188.43,40,181.34,40,174.24Z" style="fill: rgb(255, 255, 255); transform-origin: 88px 193.371px 0px;" id="el58gtiit7awa" class="animable"></path><path d="M136,147.49a15.93,15.93,0,0,1-.19,2.48c0,.19-.06.37-.1.56a15.71,15.71,0,0,1-.45,1.86c-1.66,5.4-6.1,10.55-13.32,14.71-18.75,10.83-49.13,10.82-67.88,0-7.22-4.17-11.64-9.32-13.32-14.71a2.33,2.33,0,0,0-.07-.25l-.18-.66a16.81,16.81,0,0,1-.49-4c0-18.08,16.59-35.29,23.82-42.1,3.84-3.61,6.2-5.38,7.28-7.63.94-2,.8-3.09.8-6.92h32.2c0,3.83-.13,4.93.81,6.92,1.07,2.25,3.43,4,7.28,7.63C119.4,112.21,136,129.42,136,147.49Z" style="fill: rgb(255, 255, 255); transform-origin: 88px 133.024px 0px;" id="el1ysdevj3jo3" class="animable"></path><path d="M119,238.05c-17.1,9.87-44.83,9.87-61.94,0-11.69-6.74-15.39-16.35-11.11-24.91h0a.25.25,0,0,1,0,.07L41.81,221A16,16,0,0,0,40,228.41V337.07c0,7.09,4.69,14.18,14.06,19.59,18.75,10.83,49.14,10.83,67.88,0,9.38-5.42,14.06-12.51,14.06-19.6V228.41a16,16,0,0,0-1.82-7.42l-4.06-7.79s0,0,0-.07h0C134.35,221.69,130.65,231.3,119,238.05Z" style="fill: rgb(255, 255, 255); transform-origin: 88px 288.956px 0px;" id="elrvctcutithl" class="animable"></path></g></g></g><g id="freepik--Water--inject-82" style="transform-origin: 87.9949px 236.499px 0px;" class="animable"><path d="M130.26,153.93a11.45,11.45,0,0,1,.51,3.35v7.8a11.17,11.17,0,0,1-.45,3.13l-.42,1.46.42,1.44a11.22,11.22,0,0,1,.43,3.56l-.21,5.42h.23v4.5a10.84,10.84,0,0,1-1.89,6.12l-2.09,3a21.22,21.22,0,0,0-1.31,21.86l4.07,7.78a11,11,0,0,1,1.22,5V337.07c0,5.46-4.07,10.81-11.45,15.08-8.28,4.78-19.41,7.41-31.33,7.41s-23-2.63-31.33-7.41c-7.38-4.27-11.44-9.62-11.44-15.08V228.42a10.82,10.82,0,0,1,1.22-5l4.06-7.78a21.29,21.29,0,0,0-1.31-21.86l-2.08-3a10.69,10.69,0,0,1-1.89-6.12v-4.5h.19l-.17-5.43a10.91,10.91,0,0,1,.42-3.55l.42-1.44-.42-1.46a11.21,11.21,0,0,1-.44-3.13v-7.79a11,11,0,0,1,.51-3.36l.48-1.54-.48-1.53a11.24,11.24,0,0,1-.51-3.36c0-6.34,2.42-12.71,5.85-18.54l.06-.09.37-.63a3,3,0,0,1,.19-.3A26,26,0,0,1,60.56,120c15.15-8.75,39.71-8.75,54.87,0a25.92,25.92,0,0,1,8.86,7.92l.19.3.38.63a.41.41,0,0,1,0,.09c3.42,5.83,5.86,12.2,5.86,18.54a11.81,11.81,0,0,1-.51,3.36l-.48,1.53Z" style="fill: rgb(17, 153, 142); transform-origin: 87.9949px 236.499px 0px;" id="el7dq6tvio6f3" class="animable"></path><g id="el1f3j3nf9tsi"><path d="M130.26,153.93a11.45,11.45,0,0,1,.51,3.35v7.8a11.17,11.17,0,0,1-.45,3.13l-.42,1.46.42,1.44a11.22,11.22,0,0,1,.43,3.56l-.21,5.42h.23v4.5a10.84,10.84,0,0,1-1.89,6.12l-2.09,3a21.22,21.22,0,0,0-1.31,21.86l4.07,7.78a11,11,0,0,1,1.22,5V337.07c0,5.46-4.07,10.81-11.45,15.08-8.28,4.78-19.41,7.41-31.33,7.41s-23-2.63-31.33-7.41c-7.38-4.27-11.44-9.62-11.44-15.08V228.42a10.82,10.82,0,0,1,1.22-5l4.06-7.78a21.29,21.29,0,0,0-1.31-21.86l-2.08-3a10.69,10.69,0,0,1-1.89-6.12v-4.5h.19l-.17-5.43a10.91,10.91,0,0,1,.42-3.55l.42-1.44-.42-1.46a11.21,11.21,0,0,1-.44-3.13v-7.79a11,11,0,0,1,.51-3.36l.48-1.54-.48-1.53a11.24,11.24,0,0,1-.51-3.36c0-6.34,2.42-12.71,5.85-18.54l.06-.09.37-.63a3,3,0,0,1,.19-.3A26,26,0,0,1,60.56,120c15.15-8.75,39.71-8.75,54.87,0a25.92,25.92,0,0,1,8.86,7.92l.19.3.38.63a.41.41,0,0,1,0,.09c3.42,5.83,5.86,12.2,5.86,18.54a11.81,11.81,0,0,1-.51,3.36l-.48,1.53Z" style="fill: rgb(255, 255, 255); opacity: 0.85; transform-origin: 87.9949px 236.499px 0px;" class="animable"></path></g><g id="elqfn1gyx17s8"><path d="M115.43,151.7c-15.16,8.74-39.72,8.74-54.87,0-10.66-6.15-13.82-15-9.49-22.74l.06-.09.37-.63a3,3,0,0,1,.19-.3A26,26,0,0,1,60.56,120c15.15-8.75,39.71-8.75,54.87,0a25.92,25.92,0,0,1,8.86,7.92l.19.3.38.63a.41.41,0,0,1,0,.09C129.23,136.7,126.08,145.55,115.43,151.7Z" style="fill: rgb(255, 255, 255); opacity: 0.7; transform-origin: 87.979px 135.846px 0px;" class="animable"></path></g></g><g id="freepik--shadows--inject-82" style="transform-origin: 87.995px 257.9px 0px;" class="animable"><path d="M130.63,177.82a35.55,35.55,0,0,1-8.7,6.86c-18.75,10.83-49.13,10.83-67.88,0a35.42,35.42,0,0,1-8.71-6.88l.07,2.29h-.19v4.5a10.59,10.59,0,0,0,.31,2.58,35.1,35.1,0,0,0,8.52,6.66c18.75,10.84,49.13,10.84,67.88,0a35.1,35.1,0,0,0,8.52-6.66,10.6,10.6,0,0,0,.32-2.58v-4.5h-.23Zm-5.15,37.8a21.18,21.18,0,0,1-2.42-9.84c0-.72,0-1.43.12-2.15-.41.26-.82.51-1.25.75-18.75,10.83-49.13,10.83-67.88,0q-.64-.36-1.26-.75c.07.71.12,1.43.12,2.15a21.23,21.23,0,0,1-2.41,9.84l-4.06,7.78a10.91,10.91,0,0,0-1,2.81c1.84,4.34,5.69,8.45,11.56,11.84,17.11,9.87,44.84,9.87,62,0,5.86-3.39,9.71-7.5,11.56-11.83a11.64,11.64,0,0,0-1-2.82Zm-3.55-48.52c-18.75,10.83-49.13,10.82-67.88,0a35.35,35.35,0,0,1-8.83-7v5a11.21,11.21,0,0,0,.44,3.13l.42,1.46-.25.86a35.6,35.6,0,0,0,8.22,6.34c18.75,10.82,49.13,10.82,67.88,0a35.87,35.87,0,0,0,8.22-6.34l-.25-.86.42-1.46a11.17,11.17,0,0,0,.45-3.13v-5A35.16,35.16,0,0,1,121.93,167.1Z" style="fill: rgb(17, 153, 142); transform-origin: 87.995px 202.776px 0px;" id="elob6tzmct45" class="animable"></path><g id="el60132jd1nzb"><path d="M130.63,177.82a35.55,35.55,0,0,1-8.7,6.86c-18.75,10.83-49.13,10.83-67.88,0a35.42,35.42,0,0,1-8.71-6.88l.07,2.29h-.19v4.5a10.59,10.59,0,0,0,.31,2.58,35.1,35.1,0,0,0,8.52,6.66c18.75,10.84,49.13,10.84,67.88,0a35.1,35.1,0,0,0,8.52-6.66,10.6,10.6,0,0,0,.32-2.58v-4.5h-.23Zm-5.15,37.8a21.18,21.18,0,0,1-2.42-9.84c0-.72,0-1.43.12-2.15-.41.26-.82.51-1.25.75-18.75,10.83-49.13,10.83-67.88,0q-.64-.36-1.26-.75c.07.71.12,1.43.12,2.15a21.23,21.23,0,0,1-2.41,9.84l-4.06,7.78a10.91,10.91,0,0,0-1,2.81c1.84,4.34,5.69,8.45,11.56,11.84,17.11,9.87,44.84,9.87,62,0,5.86-3.39,9.71-7.5,11.56-11.83a11.64,11.64,0,0,0-1-2.82Zm-3.55-48.52c-18.75,10.83-49.13,10.82-67.88,0a35.35,35.35,0,0,1-8.83-7v5a11.21,11.21,0,0,0,.44,3.13l.42,1.46-.25.86a35.6,35.6,0,0,0,8.22,6.34c18.75,10.82,49.13,10.82,67.88,0a35.87,35.87,0,0,0,8.22-6.34l-.25-.86.42-1.46a11.17,11.17,0,0,0,.45-3.13v-5A35.16,35.16,0,0,1,121.93,167.1Z" style="fill: rgb(255, 255, 255); opacity: 0.7; transform-origin: 87.995px 202.776px 0px;" class="animable"></path></g><path d="M115.87,318.49c-15.4-8.52-40.36-8.52-55.76,0-7.68,4.25-11.53,9.82-11.54,15.39v2c0,4.82,3.74,9.55,10.55,13.31C66.75,353.38,77,355.7,88,355.7s21.24-2.32,28.87-6.54c6.81-3.76,10.55-8.49,10.55-13.31v-2C127.41,328.32,123.56,322.74,115.87,318.49Z" style="fill: rgb(17, 153, 142); transform-origin: 87.995px 333.9px 0px;" id="elzhizprhq39g" class="animable"></path><g id="elj32acx23vcl"><path d="M115.87,318.49c-15.4-8.52-40.36-8.52-55.76,0-7.68,4.25-11.53,9.82-11.54,15.39v2c0,4.82,3.74,9.55,10.55,13.31C66.75,353.38,77,355.7,88,355.7s21.24-2.32,28.87-6.54c6.81-3.76,10.55-8.49,10.55-13.31v-2C127.41,328.32,123.56,322.74,115.87,318.49Z" style="fill: rgb(255, 255, 255); opacity: 0.75; transform-origin: 87.995px 333.9px 0px;" class="animable"></path></g></g><g id="el0ypsny9b11pa"><g style="opacity: 0.1; transform-origin: 87.995px 227.795px 0px;" class="animable"><path id="freepik--shadow--inject-82" d="M63.74,336.7V228a16,16,0,0,1,1.82-7.42l4.06-7.79a16,16,0,0,0-1-16.49l-2.09-3.05a16,16,0,0,1-2.8-9.06v-9.74h0a16.2,16.2,0,0,1,.63-5.2,16.35,16.35,0,0,1-.65-4.58h0v-7.8h0a16.17,16.17,0,0,1,.74-4.89,16.49,16.49,0,0,1-.74-4.89h0c0-18.08,12.34-35.3,19.57-42.1,3.84-3.62,6.2-5.39,7.27-7.64.91-1.91.82-3,.81-6.54H71.89c0,3.83.13,4.93-.81,6.92-1.07,2.25-3.43,4-7.27,7.63-7.23,6.81-23.82,24-23.82,42.1h0a16.5,16.5,0,0,0,.75,4.89,16.56,16.56,0,0,0-.75,4.9h0v7.79h0a16.31,16.31,0,0,0,.66,4.58,16.2,16.2,0,0,0-.63,5.2h0v9.74a16,16,0,0,0,2.81,9.06l2.09,3.05a16,16,0,0,1,1,16.49L41.81,221A16,16,0,0,0,40,228.41V337.07c0,7.09,4.69,14.18,14.06,19.59,12.75,7.37,30.89,9.72,47.09,7.06a63.34,63.34,0,0,1-23.35-7.43C68.42,350.88,63.74,343.79,63.74,336.7Z" style="transform-origin: 70.57px 227.795px 0px;" class="animable"></path><path d="M121.93,259c-18.74,10.82-49.13,10.82-67.88,0C44.68,253.56,40,246.46,40,239.37V287c0,7.1,4.69,14.19,14.06,19.6,18.75,10.82,49.14,10.82,67.88,0,9.38-5.41,14.06-12.5,14.06-19.6V239.37C136,246.46,131.31,253.56,121.93,259Z" id="el9wj24h6m31w" style="transform-origin: 88px 277.043px 0px;" class="animable"></path></g></g><g id="freepik--Cap--inject-82" style="transform-origin: 87.99px 79.91px 0px;" class="animable"><path d="M102.1,80.5c-7.79-4.5-20.42-4.5-28.22,0-3.88,2.24-5.81,5.17-5.82,8.11v3.23c0,2.94,1.93,5.89,5.82,8.14,7.8,4.5,20.43,4.5,28.22,0,3.89-2.25,5.83-5.2,5.82-8.14v-3.2C107.93,85.69,106,82.75,102.1,80.5Z" style="fill: rgb(17, 153, 142); transform-origin: 87.99px 90.24px 0px;" id="elpxsw1r3v4f" class="animable"></path><path d="M73.88,96.79c-7.79-4.5-7.79-11.79,0-16.29s20.43-4.5,28.22,0,7.79,11.79,0,16.29S81.68,101.29,73.88,96.79Z" style="fill: rgb(17, 153, 142); transform-origin: 87.99px 88.645px 0px;" id="elbjqlfstoc3k" class="animable"></path><g id="elteqcgydgpi"><path d="M73.88,96.79c-7.79-4.5-7.79-11.79,0-16.29s20.43-4.5,28.22,0,7.79,11.79,0,16.29S81.68,101.29,73.88,96.79Z" style="opacity: 0.1; transform-origin: 87.99px 88.645px 0px;" class="animable"></path></g><path d="M101.7,76.33C94.13,72,81.85,72,74.28,76.33c-3.78,2.18-5.65,5-5.66,7.88v3.14c0,2.86,1.87,5.73,5.66,7.91,7.57,4.38,19.85,4.38,27.42,0,3.79-2.18,5.67-5.05,5.66-7.91V84.24C107.37,81.38,105.49,78.51,101.7,76.33Z" style="fill: rgb(17, 153, 142); transform-origin: 87.99px 85.8138px 0px;" id="elaueef79m3y7" class="animable"></path><g id="elxtbkynz3mg"><path d="M101.7,76.33C94.13,72,81.85,72,74.28,76.33c-3.78,2.18-5.65,5-5.66,7.88v3.14c0,2.86,1.87,5.73,5.66,7.91,7.57,4.38,19.85,4.38,27.42,0,3.79-2.18,5.67-5.05,5.66-7.91V84.24C107.37,81.38,105.49,78.51,101.7,76.33Z" style="opacity: 0.3; transform-origin: 87.99px 85.8138px 0px;" class="animable"></path></g><path d="M74.28,92.16c-7.57-4.37-7.57-11.46,0-15.83s19.85-4.38,27.42,0,7.58,11.46,0,15.83S81.85,96.53,74.28,92.16Z" style="fill: rgb(17, 153, 142); transform-origin: 87.9919px 84.2431px 0px;" id="ely19gnv2fwmc" class="animable"></path><g id="el808ydtqpi19"><path d="M74.28,92.16c-7.57-4.37-7.57-11.46,0-15.83s19.85-4.38,27.42,0,7.58,11.46,0,15.83S81.85,96.53,74.28,92.16Z" style="opacity: 0.5; transform-origin: 87.9919px 84.2431px 0px;" class="animable"></path></g><path d="M102.11,59.84c-7.79-4.5-20.42-4.5-28.22,0C70,62.08,68.08,65,68.07,68V83.29c0,2.95,1.93,5.9,5.82,8.15,7.8,4.49,20.43,4.49,28.22,0,3.89-2.25,5.83-5.2,5.82-8.15V68C107.94,65,106,62.09,102.11,59.84Z" style="fill: rgb(17, 153, 142); transform-origin: 88px 75.6363px 0px;" id="elg60khgay44c" class="animable"></path><g id="elx6lczt7qy8b"><path d="M73.9,76.12c-7.79-4.49-7.79-11.78,0-16.28s20.41-4.5,28.2,0,7.79,11.79,0,16.28S81.69,80.62,73.9,76.12Z" style="fill: rgb(255, 255, 255); opacity: 0.2; transform-origin: 88px 67.9781px 0px;" class="animable"></path></g><g id="freepik--shadow--inject-82"><path d="M68.06,68.1V83.29A7.11,7.11,0,0,0,68.61,86a7,7,0,0,0-.55,2.94v3c0,2.94,1.93,5.89,5.82,8.14A26.76,26.76,0,0,0,84,103.12V99.93l2.35-1.43V95.4l.8-.6-.8,0V79.45a28,28,0,0,1-12.46-3.33C70.05,73.9,68.11,71,68.06,68.1Z" style="opacity: 0.15; transform-origin: 77.6034px 85.61px 0px;" class="animable"></path></g></g></g><g id="freepik--Label--inject-82" style="transform-origin: 88px 280.548px 0px;" class="animable"><path d="M121.93,262.45c-18.74,10.83-49.13,10.83-67.88,0C44.68,257,40,250,40,242.86v47.66c0,7.09,4.69,14.18,14.06,19.6,18.75,10.82,49.14,10.82,67.88,0,9.38-5.42,14.06-12.51,14.06-19.6V242.86C136,250,131.31,257,121.93,262.45Z" style="fill: rgb(17, 153, 142); transform-origin: 88px 280.548px 0px;" id="eln32g1d7pcam" class="animable"></path><path d="M136,278.59v-2.91c-2.12,2-4.12,4.16-6.1,6.29-2.5,2.7-5.09,5.49-7.87,7.95-10.68,9.43-22.63,12.49-36.56,9.36-10.06-2.26-19-10.91-26.39-19.08-1.56-1.72-3.06-3.48-4.52-5.18C50,269.67,45.63,264.62,40,261.11v2.46c4.87,3.31,8.82,7.94,13,12.81,1.46,1.71,3,3.48,4.55,5.22C65.14,290,74.37,298.94,85,301.32a48.38,48.38,0,0,0,10.66,1.24c10.2,0,19.35-3.67,27.74-11.08a111.2,111.2,0,0,0,8-8.09C133,281.75,134.45,280.14,136,278.59Z" style="fill: rgb(250, 250, 250); transform-origin: 88px 281.835px 0px;" id="el2w79m5dhsrr" class="animable"></path><path d="M122.71,298.58c-12.16,10.09-25.13,10.92-37.07,8.24-10.59-2.38-20.27-10.23-27.35-18C52.11,282,47,274.77,40,270.2V287c0,7.1,4.69,14.19,14.06,19.6,18.75,10.82,49.14,10.82,67.88,0,9.38-5.41,14.06-12.5,14.06-19.6v-2C131.54,289.35,127.6,294.52,122.71,298.58Z" style="fill: rgb(250, 250, 250); transform-origin: 88px 292.458px 0px;" id="el51ozn2lepqr" class="animable"></path><g id="elk441x960tnk"><path d="M60.18,265.44a49.73,49.73,0,0,1-6.13-3C44.68,257,40,250,40,242.86v47.66c0,7.09,4.69,14.18,14.06,19.6a51.15,51.15,0,0,0,6.13,3Z" style="opacity: 0.1; transform-origin: 50.095px 277.99px 0px;" class="animable"></path></g></g></g></g><g id="freepik--Character--inject-82" style="transform-origin: 259.377px 259.021px 0px;" class="animable"><g id="freepik--water-drop--inject-82" style="transform-origin: 268.252px 366.695px 0px;" class="animable"><path d="M178.93,370c2.55.9,5.31,1.7,5.68,4.37.38,2.83-1.45,4.39-2.8,7-1.54,3-3.65,5.69-5.38,8.57a26.24,26.24,0,0,0-1.81,3.49v23.78h5.51a25,25,0,0,0,1.66-3.78c3.09-7.6,10-13,17.18-16.95a90.47,90.47,0,0,1,42.52-11.36,143,143,0,0,1,15.62.81c13.26,1.28,26.63,3.44,38.73,9a73.38,73.38,0,0,1,27.6,22.26h7.43a45.21,45.21,0,0,0,2.27-5.36c.09-.28.19-.63.28-1V402.1a10.93,10.93,0,0,1-7-3.79c-4.4-5.35-1.73-15.05,1.05-20.64.88-1.78,1.88-4.08.55-5.55a3.62,3.62,0,0,0-2.5-1c-6.44-.28-11.73,7.87-17.86,5.89-3.91-1.25-5.46-6.2-4.67-10.23s3.24-7.5,5-11.21a34.33,34.33,0,0,0,3.23-15.87c-.15-4-1.14-8.21-4-11.06s-7.85-3.73-10.83-1.06c-4.66,4.18-1.05,11.63-.16,17.82a18.43,18.43,0,0,1-30.49,16.4c-3.86-3.44-6.14-8.35-9.89-11.91s-9.93-5.25-14.11-1.64-3.74,10.48-7.06,14.87c-8.15,10.76-19,3.79-23.89-5.65-2.95-5.68-5.69-12.41-3.1-18.26,1.39-3.13,4.26-5.88,4-9.29-.23-2.69-2.57-4.89-5.19-5.55a10.4,10.4,0,0,0-9.77,3.26,17.33,17.33,0,0,0-4.18,9.76,18.5,18.5,0,0,0,.74,8.59c1.07,2.94,3.07,5.44,4.45,8.24a21.21,21.21,0,0,1,2.12,8.53,9.75,9.75,0,0,1-1.73,6.53,6.32,6.32,0,0,1-6.62,1.95,7,7,0,0,1-3.61-2.88c-.91-1.28-1.63-2.7-2.61-3.92a8.58,8.58,0,0,0-4.74-3.12,5.92,5.92,0,0,0-5.37,1.42,3.45,3.45,0,0,0-1.1,2.64,4.08,4.08,0,0,0,1.39,2.46A9.59,9.59,0,0,0,178.93,370Z" style="fill: rgb(17, 153, 142); transform-origin: 253.749px 370.69px 0px;" id="el5psfa8uoojj" class="animable"></path><g id="elxzeyku9e35"><path d="M178.93,370c2.55.9,5.31,1.7,5.68,4.37.38,2.83-1.45,4.39-2.8,7-1.54,3-3.65,5.69-5.38,8.57a26.24,26.24,0,0,0-1.81,3.49v23.78h5.51a25,25,0,0,0,1.66-3.78c3.09-7.6,10-13,17.18-16.95a90.47,90.47,0,0,1,42.52-11.36,143,143,0,0,1,15.62.81c13.26,1.28,26.63,3.44,38.73,9a73.38,73.38,0,0,1,27.6,22.26h7.43a45.21,45.21,0,0,0,2.27-5.36c.09-.28.19-.63.28-1V402.1a10.93,10.93,0,0,1-7-3.79c-4.4-5.35-1.73-15.05,1.05-20.64.88-1.78,1.88-4.08.55-5.55a3.62,3.62,0,0,0-2.5-1c-6.44-.28-11.73,7.87-17.86,5.89-3.91-1.25-5.46-6.2-4.67-10.23s3.24-7.5,5-11.21a34.33,34.33,0,0,0,3.23-15.87c-.15-4-1.14-8.21-4-11.06s-7.85-3.73-10.83-1.06c-4.66,4.18-1.05,11.63-.16,17.82a18.43,18.43,0,0,1-30.49,16.4c-3.86-3.44-6.14-8.35-9.89-11.91s-9.93-5.25-14.11-1.64-3.74,10.48-7.06,14.87c-8.15,10.76-19,3.79-23.89-5.65-2.95-5.68-5.69-12.41-3.1-18.26,1.39-3.13,4.26-5.88,4-9.29-.23-2.69-2.57-4.89-5.19-5.55a10.4,10.4,0,0,0-9.77,3.26,17.33,17.33,0,0,0-4.18,9.76,18.5,18.5,0,0,0,.74,8.59c1.07,2.94,3.07,5.44,4.45,8.24a21.21,21.21,0,0,1,2.12,8.53,9.75,9.75,0,0,1-1.73,6.53,6.32,6.32,0,0,1-6.62,1.95,7,7,0,0,1-3.61-2.88c-.91-1.28-1.63-2.7-2.61-3.92a8.58,8.58,0,0,0-4.74-3.12,5.92,5.92,0,0,0-5.37,1.42,3.45,3.45,0,0,0-1.1,2.64,4.08,4.08,0,0,0,1.39,2.46A9.59,9.59,0,0,0,178.93,370Z" style="fill: rgb(255, 255, 255); opacity: 0.2; transform-origin: 253.749px 370.69px 0px;" class="animable"></path></g><path d="M198,369.47a4.88,4.88,0,0,0,1.47-.79c2.06-1.63,2.42-4.6,2.24-7.22a27.09,27.09,0,0,0-1.59-7.43c-.73-2-1.72-4-1.62-6.16a7.36,7.36,0,0,1,2.17-4.71c.9-.92,2.11-2,1.83-3.21-.38-1.66-2.71-1.63-4.3-2.23-2.66-1-3.54-4.57-2.59-7.25a11.93,11.93,0,0,1,2.9-4.32,12.09,12.09,0,0,0-1.76,1.51,17.33,17.33,0,0,0-4.18,9.76,18.5,18.5,0,0,0,.74,8.59c1.07,2.94,3.07,5.44,4.45,8.24a21.21,21.21,0,0,1,2.12,8.53,9.75,9.75,0,0,1-1.73,6.53Z" style="fill: rgb(17, 153, 142); transform-origin: 197.453px 347.81px 0px;" id="elijstnpyzgnp" class="animable"></path><path d="M178.93,370c2.55.9,5.31,1.7,5.68,4.37.38,2.83-1.45,4.39-2.8,7-1.54,3-3.65,5.69-5.38,8.57a26.24,26.24,0,0,0-1.81,3.49v23.78h5.51a25,25,0,0,0,1.66-3.78c3.09-7.6,10-13,17.18-16.95a90.47,90.47,0,0,1,42.52-11.36,143,143,0,0,1,15.62.81c13.26,1.28,26.63,3.44,38.73,9a73.38,73.38,0,0,1,27.6,22.26h7.43a45.21,45.21,0,0,0,2.27-5.36c.09-.28.19-.63.28-1V402.1a7.91,7.91,0,0,1-.85-.13,15.49,15.49,0,0,1-6.7,3.84c-5.3,1.28-9.38-2.43-13.65-5.82-11.1-8.82-24.62-14-38.46-16.53-13.21-2.45-27.16-3.13-40.46-1-14.62,2.33-28.55,7.83-41.77,14.36-2.61,1.29-5.64,2.64-8.31,1.48-2.88-1.26-3.89-5-3.19-8.08s2.66-5.65,4.31-8.32,3.08-5.76,2.54-8.85a7.64,7.64,0,0,0-4.1-5.44c-1.69-.82-3.7-1-5.15-2.23a3.23,3.23,0,0,1-.81-3.69,5,5,0,0,0-1.65,1.08,3.45,3.45,0,0,0-1.1,2.64,4.08,4.08,0,0,0,1.39,2.46A9.59,9.59,0,0,0,178.93,370Z" style="fill: rgb(17, 153, 142); transform-origin: 253.744px 389.45px 0px;" id="el5i20vwtky2g" class="animable"></path><path d="M251.29,347.53a5.7,5.7,0,0,1,1,0c-3.42-1.61-7.53-1.83-10.54.77-4,3.5-3.74,10.48-7.06,14.87-4.08,5.39-8.84,6.33-13.19,4.74a5.34,5.34,0,0,0,.48.35,7.39,7.39,0,0,0,5,.73c5.67-.84,10.36-5.08,13.34-10a80.69,80.69,0,0,1,4.23-7.11C246.19,349.67,248.55,347.79,251.29,347.53Z" style="fill: rgb(17, 153, 142); transform-origin: 236.895px 357.736px 0px;" id="el8tapng8lktf" class="animable"></path><path d="M303.78,346a3.35,3.35,0,0,0-.19-3.57c-.85-1-2.32-1.12-3.56-1.57a7.7,7.7,0,0,1-4.48-4.72,11.86,11.86,0,0,1-.22-6.63,8.55,8.55,0,0,1,.36-1.15c-3.52,4.28-.28,11.23.56,17.06a18.92,18.92,0,0,1-9.51,18.86l-.81.39a8.52,8.52,0,0,0,1-.23c3.45-1,6.15-3.75,8.28-6.65s3.85-6.12,6.25-8.82A13.53,13.53,0,0,0,303.78,346Z" style="fill: rgb(17, 153, 142); transform-origin: 295.068px 346.515px 0px;" id="el6dg25dq9k3t" class="animable"></path><path d="M326.42,398.31c-4.4-5.35-1.73-15.05,1.05-20.64.88-1.78,1.88-4.08.55-5.55a3.62,3.62,0,0,0-2.5-1,6.77,6.77,0,0,0-.78,0c1.58,1.73.64,4.53-.41,6.66a36.64,36.64,0,0,0-3.51,9c-.62,3.18-.27,6.69,1.68,9.26a7.72,7.72,0,0,0,4.51,2.84C326.81,398.73,326.6,398.53,326.42,398.31Z" style="fill: rgb(17, 153, 142); transform-origin: 324.603px 384.994px 0px;" id="elp6lzeuxv6q9" class="animable"></path><g id="eltrk8j2jmxm9"><path d="M200.84,327.59a1.83,1.83,0,0,0-.7,1.68c.29,1.15,2,1.18,2.8,2s.72,2.5,1.74,3.18c.87.58,2.07.08,2.84-.63a5.2,5.2,0,0,0,1.53-5.18C207.89,324.9,203.26,325.42,200.84,327.59Z" style="fill: rgb(255, 255, 255); opacity: 0.2; transform-origin: 204.675px 330.299px 0px;" class="animable"></path></g><g id="el3j4ohlhgwix"><path d="M213.12,368.14c4.66,4.38,10.7,6.92,16.9,4.3.54-.22,1.15-.82.78-1.27,0,0-3.82.47-4.26.44-8.7-.59-15.94-8.87-18.76-16.62-.44-1.24-.82-3.7-1.84-4.6-1.25-1.08-.94.72-.81,1.56a29.36,29.36,0,0,0,1.25,5.63,27.3,27.3,0,0,0,6.72,10.54Z" style="fill: rgb(255, 255, 255); opacity: 0.2; transform-origin: 217.956px 361.777px 0px;" class="animable"></path></g><g id="el9gvdw1qyzqc"><path d="M247.72,351.41a3.11,3.11,0,0,0-.66,1.55,3,3,0,0,0,1.27,2.44,11.08,11.08,0,0,0,2.55,1.28,29.38,29.38,0,0,1,8.92,5.74,1.46,1.46,0,0,0,.86.49.93.93,0,0,0,.85-.85,2.5,2.5,0,0,0-.26-1.28,31.17,31.17,0,0,0-5.92-9.42C253.21,349,249.82,348.68,247.72,351.41Z" style="fill: rgb(255, 255, 255); opacity: 0.2; transform-origin: 254.288px 356.192px 0px;" class="animable"></path></g><g id="elyevm4tgzd6"><path d="M298.21,328.93a2.41,2.41,0,0,0-.64,2.42,4.7,4.7,0,0,0,1.57,2.2,22.55,22.55,0,0,0,4.66,2.94,7.79,7.79,0,0,1,3.13,4.64c.09.39.23.88.63.91a.61.61,0,0,0,.39-.11,2.39,2.39,0,0,0,.85-1.82c.47-3.46.09-7-2.4-9.63a7.65,7.65,0,0,0-5.39-2.63A4.16,4.16,0,0,0,298.21,328.93Z" style="fill: rgb(255, 255, 255); opacity: 0.2; transform-origin: 303.223px 334.946px 0px;" class="animable"></path></g><g id="elg6m8nin2lhq"><path d="M316.84,376.05a28.88,28.88,0,0,1-3.37,1.72,13.35,13.35,0,0,1-9.26.18,10.82,10.82,0,0,0,7.4,3.27,19.28,19.28,0,0,0,8.08-1.53c1.94-.77,5.11-2.62,4.22-5.2C322.84,371.39,318.39,375.16,316.84,376.05Z" style="fill: rgb(255, 255, 255); opacity: 0.2; transform-origin: 314.137px 377.258px 0px;" class="animable"></path></g><g id="el9983zbydgas"><path d="M178.12,362.9a1.12,1.12,0,0,0,.58.9,3.47,3.47,0,0,0,1,.36,8.47,8.47,0,0,1,1.94.81,12.57,12.57,0,0,0,1.61.88.54.54,0,0,0,.35,0,.41.41,0,0,0,.23-.28,1.87,1.87,0,0,0-.31-1.54,4.59,4.59,0,0,0-3.69-2.06,2,2,0,0,0-1.56.55A.56.56,0,0,0,178.12,362.9Z" style="fill: rgb(255, 255, 255); opacity: 0.2; transform-origin: 181.001px 363.921px 0px;" class="animable"></path></g><g id="elxrxfpcqzd6q"><path d="M301,332.61a18.35,18.35,0,0,0,2.5.84l2.14.6a1.15,1.15,0,0,0,.48.07.79.79,0,0,0,.6-.69c.39-2.88-4.44-6.07-6.85-4.4a1.83,1.83,0,0,0-.67,2.24,2.48,2.48,0,0,0,1,.94A8.36,8.36,0,0,0,301,332.61Z" style="fill: rgb(255, 255, 255); opacity: 0.2; transform-origin: 302.898px 331.346px 0px;" class="animable"></path></g><g id="el2qrtaz8vlhn"><path d="M204.87,329.85a2.92,2.92,0,0,1,.27,1.09c0,.55-.06,1.2.36,1.57a1,1,0,0,0,1.27,0,2.47,2.47,0,0,0,.76-1.13,4.29,4.29,0,0,0,.29-2.94,2.08,2.08,0,0,0-2.56-1.39C203.62,327.54,204.37,328.74,204.87,329.85Z" style="fill: rgb(255, 255, 255); opacity: 0.2; transform-origin: 206.107px 329.854px 0px;" class="animable"></path></g><g id="el9w66mrjl57g"><path d="M249.54,352.78a1.61,1.61,0,0,0,.71.63l5.55,3.32a.54.54,0,0,0,.36.12c.21,0,.32-.26.38-.47a4,4,0,0,0-1.72-4.06c-1-.85-2.34-1.71-3.71-1.39C250.26,351.13,249,351.7,249.54,352.78Z" style="fill: rgb(255, 255, 255); opacity: 0.2; transform-origin: 253.008px 353.856px 0px;" class="animable"></path></g><g id="elugdvod2docb"><circle cx="334.32" cy="325.9" r="9.71" style="fill: rgb(17, 153, 142); transform-origin: 334.32px 325.9px 0px; transform: rotate(-85.27deg);" class="animable"></circle></g><g id="elh966zo5g49s"><circle cx="334.32" cy="325.9" r="9.71" style="fill: rgb(255, 255, 255); opacity: 0.4; transform-origin: 334.32px 325.9px 0px; transform: rotate(-85.27deg);" class="animable"></circle></g><path d="M334.32,316.18A9.72,9.72,0,1,0,344,325.9a9.43,9.43,0,0,0-.17-1.78c.57,2.87-4.05,7-9.54,4.16S329.8,318,334.32,316.18Z" style="fill: rgb(17, 153, 142); transform-origin: 334.28px 325.9px 0px;" id="elatensm4xk8w" class="animable"></path><g id="elsmxwjd4w35c"><path d="M334.32,316.18A9.72,9.72,0,1,0,344,325.9a9.43,9.43,0,0,0-.17-1.78c.57,2.87-4.05,7-9.54,4.16S329.8,318,334.32,316.18Z" style="fill: rgb(255, 255, 255); opacity: 0.2; transform-origin: 334.28px 325.9px 0px;" class="animable"></path></g><path d="M342.55,331.05c-.19.24-3.57,4.33-10.05,2.19-6.69-2.21-7.12-11.37-3.5-15.47a9.71,9.71,0,1,0,13.55,13.28Z" style="fill: rgb(17, 153, 142); transform-origin: 333.582px 326.685px 0px;" id="elfbqzsrewoz9" class="animable"></path><g id="elld2fmf5f4sj"><path d="M335.77,322.87a15,15,0,0,1,1.33,1.44,9.63,9.63,0,0,1,1.45,5.28c.07,1.18.89,2.06,2,1.26a4,4,0,0,0,1.39-2.37,9.64,9.64,0,0,0-.46-6.57,7.67,7.67,0,0,0-3.82-3.65,2.66,2.66,0,0,0-2.95.48c-1,1.16-.41,2.56.49,3.58C335.41,322.51,335.59,322.69,335.77,322.87Z" style="fill: rgb(255, 255, 255); opacity: 0.3; transform-origin: 338.25px 324.585px 0px;" class="animable"></path></g><g id="elletv4am182a"><path d="M336.49,333.16a1,1,0,0,0,.44.72,1.21,1.21,0,0,0,.32.11,1.65,1.65,0,0,0,2-1.11,1,1,0,0,0-.95-1.32,1.83,1.83,0,0,0-1.41.62,1.34,1.34,0,0,0-.37.88S336.49,333.13,336.49,333.16Z" style="fill: rgb(255, 255, 255); opacity: 0.3; transform-origin: 337.896px 332.803px 0px;" class="animable"></path></g><path d="M171.52,341.36a7.17,7.17,0,1,1-10.13.52A7.17,7.17,0,0,1,171.52,341.36Z" style="fill: rgb(17, 153, 142); transform-origin: 166.715px 346.682px 0px;" id="elrvd9q4ptmuf" class="animable"></path><g id="elclmsvcb5rgb"><path d="M171.52,341.36a7.17,7.17,0,1,1-10.13.52A7.17,7.17,0,0,1,171.52,341.36Z" style="fill: rgb(255, 255, 255); opacity: 0.4; transform-origin: 166.715px 346.682px 0px;" class="animable"></path></g><path d="M161.39,341.88a7.17,7.17,0,1,0,10.13-.52,6.63,6.63,0,0,0-1.06-.79c1.86,1.11,1.84,5.69-2.44,7.3S160.14,345.25,161.39,341.88Z" style="fill: rgb(17, 153, 142); transform-origin: 166.715px 347.211px 0px;" id="el6zaxwvkcthj" class="animable"></path><g id="elt4eudyq3pom"><path d="M161.39,341.88a7.17,7.17,0,1,0,10.13-.52,6.63,6.63,0,0,0-1.06-.79c1.86,1.11,1.84,5.69-2.44,7.3S160.14,345.25,161.39,341.88Z" style="fill: rgb(255, 255, 255); opacity: 0.2; transform-origin: 166.715px 347.211px 0px;" class="animable"></path></g><path d="M173.61,344.72c0,.22.61,4.1-3.77,6.6s-9.75-1.72-10.21-5.74a7.17,7.17,0,1,0,14-.86Z" style="fill: rgb(17, 153, 142); transform-origin: 166.721px 349.264px 0px;" id="elqmhigpyewb" class="animable"></path><g id="elgk6pfgw4u1p"><path d="M165.77,344.4a8.79,8.79,0,0,1,1.45,0,7.12,7.12,0,0,1,3.62,1.81c.68.54,1.56.53,1.7-.49a3,3,0,0,0-.62-1.94,7,7,0,0,0-3.83-3,5.61,5.61,0,0,0-3.89.29,2,2,0,0,0-1.2,1.85c.13,1.13,1.21,1.49,2.21,1.5Z" style="fill: rgb(255, 255, 255); opacity: 0.3; transform-origin: 167.771px 343.563px 0px;" class="animable"></path></g><g id="elo3cqjpz5sx"><path d="M171.78,349.09a.7.7,0,0,0,.61.11.94.94,0,0,0,.22-.12,1.23,1.23,0,0,0,.36-1.63.77.77,0,0,0-1.2-.13,1.39,1.39,0,0,0-.35,1.09,1,1,0,0,0,.3.63Z" style="fill: rgb(255, 255, 255); opacity: 0.3; transform-origin: 172.274px 348.159px 0px;" class="animable"></path></g><path d="M175.6,323.49a3.66,3.66,0,1,1-5.17.27A3.67,3.67,0,0,1,175.6,323.49Z" style="fill: rgb(17, 153, 142); transform-origin: 173.15px 326.211px 0px;" id="elyxjbc1g04wh" class="animable"></path><g id="elqjv2vudrmgo"><path d="M175.6,323.49a3.66,3.66,0,1,1-5.17.27A3.67,3.67,0,0,1,175.6,323.49Z" style="fill: rgb(255, 255, 255); opacity: 0.4; transform-origin: 173.15px 326.211px 0px;" class="animable"></path></g><path d="M170.43,323.76a3.66,3.66,0,1,0,5.17-.27,3.49,3.49,0,0,0-.54-.41c.95.57.94,2.91-1.24,3.73A2.54,2.54,0,0,1,170.43,323.76Z" style="fill: rgb(17, 153, 142); transform-origin: 173.15px 326.475px 0px;" id="elgmddcavdaet" class="animable"></path><g id="eljjwhw4ngzb"><path d="M170.43,323.76a3.66,3.66,0,1,0,5.17-.27,3.49,3.49,0,0,0-.54-.41c.95.57.94,2.91-1.24,3.73A2.54,2.54,0,0,1,170.43,323.76Z" style="fill: rgb(255, 255, 255); opacity: 0.2; transform-origin: 173.15px 326.475px 0px;" class="animable"></path></g><path d="M176.67,325.2a3.37,3.37,0,0,1-1.93,3.37c-2.3,1.32-5-.88-5.21-2.93a3.66,3.66,0,1,0,7.14-.44Z" style="fill: rgb(17, 153, 142); transform-origin: 173.148px 327.527px 0px;" id="elt5ss9mquyk" class="animable"></path><g id="elvetnhte368h"><path d="M172.67,325a6.06,6.06,0,0,1,.74,0,3.7,3.7,0,0,1,1.84.92c.35.28.8.27.87-.25a1.47,1.47,0,0,0-.31-1,3.62,3.62,0,0,0-2-1.53,2.84,2.84,0,0,0-2,.14,1,1,0,0,0-.61.95c.07.58.62.76,1.13.77Z" style="fill: rgb(255, 255, 255); opacity: 0.3; transform-origin: 173.661px 324.562px 0px;" class="animable"></path></g><g id="elbzvy9fltxsh"><path d="M175.73,327.43a.32.32,0,0,0,.31.06l.12-.06a.62.62,0,0,0,.18-.83.39.39,0,0,0-.61-.07.71.71,0,0,0-.18.56.48.48,0,0,0,.15.32Z" style="fill: rgb(255, 255, 255); opacity: 0.3; transform-origin: 175.987px 326.96px 0px;" class="animable"></path></g><path d="M376.83,368.93a3.66,3.66,0,1,1-4.5-2.57A3.67,3.67,0,0,1,376.83,368.93Z" style="fill: rgb(17, 153, 142); transform-origin: 373.298px 369.891px 0px;" id="elsgnbihojlar" class="animable"></path><g id="el0n5sigv6bj1"><path d="M376.83,368.93a3.66,3.66,0,1,1-4.5-2.57A3.67,3.67,0,0,1,376.83,368.93Z" style="fill: rgb(255, 255, 255); opacity: 0.4; transform-origin: 373.298px 369.891px 0px;" class="animable"></path></g><path d="M372.33,366.36a3.66,3.66,0,1,0,4.5,2.57,3.41,3.41,0,0,0-.24-.63c.49,1-.78,2.95-3.06,2.46A2.54,2.54,0,0,1,372.33,366.36Z" style="fill: rgb(17, 153, 142); transform-origin: 373.298px 369.955px 0px;" id="elek5w0adev2" class="animable"></path><g id="elceg8fm5tfl"><path d="M372.33,366.36a3.66,3.66,0,1,0,4.5,2.57,3.41,3.41,0,0,0-.24-.63c.49,1-.78,2.95-3.06,2.46A2.54,2.54,0,0,1,372.33,366.36Z" style="fill: rgb(255, 255, 255); opacity: 0.2; transform-origin: 373.298px 369.955px 0px;" class="animable"></path></g><path d="M376.8,371a3.38,3.38,0,0,1-3.44,1.8c-2.65-.15-3.72-3.44-2.81-5.29A3.66,3.66,0,1,0,376.8,371Z" style="fill: rgb(17, 153, 142); transform-origin: 373.221px 370.546px 0px;" id="eltsjmzrjwft" class="animable"></path><g id="elrc96taetryl"><path d="M373.52,368.65a6,6,0,0,1,.63.39,3.75,3.75,0,0,1,1.05,1.78c.14.42.53.66.87.26a1.58,1.58,0,0,0,.27-1,3.62,3.62,0,0,0-.82-2.35,2.93,2.93,0,0,0-1.75-1,1,1,0,0,0-1,.47c-.26.52.11,1,.53,1.25Z" style="fill: rgb(255, 255, 255); opacity: 0.3; transform-origin: 374.514px 369.002px 0px;" class="animable"></path></g><g id="elazoknpzz7on"><path d="M374.8,372.32a.36.36,0,0,0,.23.22h.13a.62.62,0,0,0,.6-.6.38.38,0,0,0-.47-.39.77.77,0,0,0-.46.37.56.56,0,0,0,0,.36Z" style="fill: rgb(255, 255, 255); opacity: 0.3; transform-origin: 375.28px 372.04px 0px;" class="animable"></path></g></g><g id="freepik--character--inject-82" style="transform-origin: 264.673px 250.97px 0px;" class="animable"><g id="freepik--Bottom--inject-82" style="transform-origin: 254.418px 318.734px 0px;" class="animable"><path d="M215.34,369.73c.72-.87,2.59-4.21,3.67-5.91s6.06-11,11.82-24.81c7.4-17.81,19.39-30.81,23.16-37.47,2.24-4,4.52-8.31,6.56-12.69l37.67.78c-.09,2.74-1.29,6.22-3.33,10.22h0l-.06.12c-.2.39-.42.8-.64,1.2-4.45,8.32-11.95,18.33-20.31,28.43l-.2.24-.29.36c-8.05,9.76-37.69,43.75-40.1,47.52-7,11-8.38,22.94-8.55,28.89-.1,3.72-3,4.37-6.84,1-7.8-6.77-7.15-14-7.27-16.52C210,378.38,211.23,374.74,215.34,369.73Z" style="fill: rgb(200, 133, 106); transform-origin: 254.347px 349.327px 0px;" id="el1ltw9r9phd4" class="animable"></path><path d="M234.25,326.19c4.5-11.24,12.54-17.46,15.76-22.67s9.11-15.64,9.11-15.64l2.69.07L260.6,346.4l-21.94,25.53a56.72,56.72,0,0,1-10.47-6.61,17.15,17.15,0,0,1-5.77-8.75S229.76,337.43,234.25,326.19Z" style="fill: rgb(55, 71, 79); transform-origin: 242.115px 329.905px 0px;" id="elmfvhb27vul9" class="animable"></path><path d="M207.62,374.38a10,10,0,0,0-1.88,3.51c-.48,1.31,1.14,6.69,1,9.39s-.47,3.52-.87,7c-.45,3.84-2.11,7.67,3,16s10.77,11.06,15,12.71,6.59.81,6.59.81,4.47-3.13,3-5.86S207.62,374.38,207.62,374.38Z" style="fill: rgb(38, 50, 56); transform-origin: 219.505px 399.197px 0px;" id="el4ot86k146ds" class="animable"></path><path d="M233.58,379.63c.1,1-.84,2.72-1.17,3.61-1.13,3-1.08,6.65-.93,9.82.69,15,8.19,20.81,1.87,28.1-1.86,2-8.33,1.89-17.61-5.32-4.74-3.69-9.18-12.61-8.86-17.24s1.52-7.89,1.59-11.41-1.95-9.52-.85-12.81a13.59,13.59,0,0,1,3.48-4.95c1.15-1.17,3.85-3,5-4.16s1.73-2.23,2.87-1.45l-1.1,2.39c-1.62,4.1-.8,4.43-.27,6.25a30.21,30.21,0,0,1,.56,6.11c1.21-2.69,1.44-4.84,3.47-5s4,.56,7.43,2.46S233.49,378.78,233.58,379.63Z" style="fill: rgb(69, 90, 100); transform-origin: 221.364px 392.913px 0px;" id="elfzcgqqs216v" class="animable"></path><path d="M215.74,415.84c-4.74-3.69-9.18-12.61-8.86-17.24a40.09,40.09,0,0,1,.59-4.55c0,.3,0,.62,0,.87.05.58.12,1.15.21,1.72a13.11,13.11,0,0,0,2.35,6.29c1.25,1.57,4.24,5.56,6.67,5.05,1.37-.29,2.18-1.91,2.32-3.56.06-.69,0-2.52,0-2.52a21.81,21.81,0,0,1,6.88,1,21.3,21.3,0,0,1,5.82,2.82,9.53,9.53,0,0,0,.66,3.08,7.75,7.75,0,0,0,2.07,2.71,5,5,0,0,0,1.06.49c.69,3.32.49,6.13-2.17,9.19C231.49,423.12,225,423.05,215.74,415.84Z" style="fill: rgb(55, 71, 79); transform-origin: 221.356px 408.157px 0px;" id="el6xfpaoxhp2v" class="animable"></path><path d="M231.48,393.06a49.87,49.87,0,0,0,2,11.62c-.39,4-1.57,4.16-2.2,2.31s-.1-10.34.13-17.3C231.4,390.84,231.43,392,231.48,393.06Z" style="fill: rgb(55, 71, 79); transform-origin: 232.231px 398.909px 0px;" id="elio9shni29k" class="animable"></path><path d="M215.26,371.54a8.21,8.21,0,0,1,.08-5.57c.3-.25.58-.49.8-.7,1.29-1.23,1.73-2.23,2.87-1.45l-1.1,2.39c-1.62,4.1-.8,4.43-.27,6.26a30,30,0,0,1,.56,6.1c.11,6.56-.69,9,.1,15s3,9.66,2.22,10.2-2.58.29-4.07-4.32-1.41-13-.9-17.1S216.19,374,215.26,371.54Z" style="fill: rgb(55, 71, 79); transform-origin: 217.748px 383.759px 0px;" id="elw5zthduemb" class="animable"></path><path d="M231.9,406.58a.63.63,0,0,1-.35-.11,19.67,19.67,0,0,0-12.49-4,.59.59,0,0,1-.63-.57.62.62,0,0,1,.58-.63,21,21,0,0,1,13.24,4.19.61.61,0,0,1,.14.84A.63.63,0,0,1,231.9,406.58Z" style="fill: rgb(235, 235, 235); transform-origin: 225.465px 403.92px 0px;" id="elap4v6qgtoc4" class="animable"></path><path d="M232,401.9a.6.6,0,0,1-.36-.12,21.64,21.64,0,0,0-13.11-4.34h0a.62.62,0,1,1,0-1.23,22.94,22.94,0,0,1,13.85,4.56.63.63,0,0,1-.36,1.13Z" style="fill: rgb(235, 235, 235); transform-origin: 225.229px 399.053px 0px;" id="elga16lixb77a" class="animable"></path><path d="M232,397a.65.65,0,0,1-.39-.13,24,24,0,0,0-14.46-4.78h0a.68.68,0,0,1,0-1.36,25.39,25.39,0,0,1,15.27,5A.68.68,0,0,1,232,397Z" style="fill: rgb(235, 235, 235); transform-origin: 224.623px 393.868px 0px;" id="el12t1y0fdt0na" class="animable"></path><path d="M231.3,392.13a.59.59,0,0,1-.38-.12,23.61,23.61,0,0,0-14.18-4.69h0a.67.67,0,0,1,0-1.33,24.82,24.82,0,0,1,15,4.93.67.67,0,0,1,.16.93A.66.66,0,0,1,231.3,392.13Z" style="fill: rgb(235, 235, 235); transform-origin: 224.086px 389.061px 0px;" id="elolgtrws3unh" class="animable"></path><path d="M231.85,387.24a.68.68,0,0,1-.38-.12,23.46,23.46,0,0,0-14.18-4.69h0a.67.67,0,1,1,0-1.33,24.86,24.86,0,0,1,15,4.93.67.67,0,0,1,.16.93A.66.66,0,0,1,231.85,387.24Z" style="fill: rgb(235, 235, 235); transform-origin: 224.555px 384.169px 0px;" id="elo2x0bgacj3n" class="animable"></path><path d="M267.15,401.78c.33-25,8.36-89.56,6-109.39l-37.8-.45a164.1,164.1,0,0,1,3.9,26.72c.62,8.23-2,27,1.83,47.4,3,15.81,4.35,29.42,4.46,36.8.11,7,.39,10.86,8,21.88,1.48,2.13,5,9,15.28,10.35,5,.66,7.09-1.68,5.09-5.06C270.75,424.62,266.94,417.25,267.15,401.78Z" style="fill: rgb(200, 133, 106); transform-origin: 255.006px 363.571px 0px;" id="elaqcqrbs3cr6" class="animable"></path><path d="M242.64,419.45a11,11,0,0,0,.67,4.26c.45,1.44,5.37,5,7.07,7.42s1.9,3.35,3.82,6.62c2.14,3.61,3.21,8,13,11.85s16.56,2.5,21.27,1.17,6.21-3.62,6.21-3.62,1.82-5.63-1.26-7S242.64,419.45,242.64,419.45Z" style="fill: rgb(38, 50, 56); transform-origin: 268.922px 435.789px 0px;" id="el16olychmz5c" class="animable"></path><path d="M268.51,407c.72.77,1.06,2.9,1.35,3.89,1,3.33,3.44,6.45,5.64,9.09,10.43,12.5,20.72,12.61,20,23.05-.33,2.92-6,7.1-18.71,6.95-6.51-.07-16.19-4.88-18.95-9.08S254,433,251.77,430s-7.93-6.95-9.13-10.51a14.72,14.72,0,0,1-.24-6.57c.23-1.76,1.35-5.12,1.63-6.89s0-3.06,1.53-3.13l.62,2.78c1.28,4.6,2.21,4.35,3.86,5.58s3.05,3.27,4.48,4.91c-.72-3.12-1.92-5.13-.27-6.58s3.81-2.14,8-2.75S267.88,406.28,268.51,407Z" style="fill: rgb(69, 90, 100); transform-origin: 268.837px 426.442px 0px;" id="elnz11991tyh" class="animable"></path><path d="M276.83,449.94c-6.51-.07-16.19-4.88-18.95-9.08a44.63,44.63,0,0,1-2.48-4.33c.21.25.41.54.6.74.42.46.86.92,1.31,1.35a14.26,14.26,0,0,0,6.15,3.9c2.12.53,7.31,2,9.07,0,1-1.15.64-3.08-.32-4.6-.41-.64-1.67-2.17-1.67-2.17a23.63,23.63,0,0,1,6.58-3.67,23.12,23.12,0,0,1,6.87-1.38,10.6,10.6,0,0,0,2.6,2.23,8.36,8.36,0,0,0,3.56,1,5.35,5.35,0,0,0,1.24-.28c2.77,2.42,4.43,5,4.15,9.36C295.21,445.91,289.58,450.09,276.83,449.94Z" style="fill: rgb(55, 71, 79); transform-origin: 275.485px 440.322px 0px;" id="elkw6iwxgphcq" class="animable"></path><path d="M275.5,419.94a53.75,53.75,0,0,0,9.34,8.73c2.28,3.7,1.38,4.63-.38,3.44s-6.87-8.86-11.23-15C274,418.08,274.75,419,275.5,419.94Z" style="fill: rgb(55, 71, 79); transform-origin: 279.716px 424.854px 0px;" id="el7028rmpshmp" class="animable"></path><path d="M247.38,412a8.87,8.87,0,0,1-3.58-4.86c.09-.41.18-.8.23-1.13.3-1.91,0-3.06,1.53-3.13l.62,2.78c1.28,4.6,2.21,4.35,3.86,5.58s3.05,3.27,4.48,4.91c4.4,5.59,5.28,8.2,9.92,12.88s8.88,6.4,8.6,7.35-2,1.95-6.35-1.06S257,425,254.7,421.11,249.77,413.47,247.38,412Z" style="fill: rgb(55, 71, 79); transform-origin: 258.427px 420.108px 0px;" id="elc95g5x5mjmb" class="animable"></path><path d="M270.61,436.39a.61.61,0,0,0,.35-.15,21.43,21.43,0,0,1,13.39-4.76.65.65,0,1,0,0-1.3,22.64,22.64,0,0,0-14.18,5.06.65.65,0,0,0-.09.92A.67.67,0,0,0,270.61,436.39Z" style="fill: rgb(235, 235, 235); transform-origin: 277.466px 433.285px 0px;" id="elzmckmfcmqwg" class="animable"></path><path d="M266.86,432.34a.64.64,0,0,0,.35-.14,23.63,23.63,0,0,1,14.17-4.85.65.65,0,0,0,.65-.69.67.67,0,0,0-.69-.65,24.92,24.92,0,0,0-15,5.14.67.67,0,0,0-.11.94A.66.66,0,0,0,266.86,432.34Z" style="fill: rgb(235, 235, 235); transform-origin: 274.059px 429.179px 0px;" id="el1vzonwd9a1y" class="animable"></path><path d="M262.1,428.68a.73.73,0,0,0,.38-.15,26,26,0,0,1,15.63-5.35.74.74,0,1,0-.05-1.47,27.45,27.45,0,0,0-16.5,5.66.74.74,0,0,0-.12,1A.73.73,0,0,0,262.1,428.68Z" style="fill: rgb(235, 235, 235); transform-origin: 270.103px 425.192px 0px;" id="elxo2g005qdbs" class="animable"></path><path d="M258.63,424.8a.67.67,0,0,0,.37-.15,25.49,25.49,0,0,1,15.33-5.24.73.73,0,0,0,.69-.75.72.72,0,0,0-.74-.7,26.92,26.92,0,0,0-16.17,5.55.72.72,0,0,0-.12,1A.71.71,0,0,0,258.63,424.8Z" style="fill: rgb(235, 235, 235); transform-origin: 266.431px 421.381px 0px;" id="elhgtkchu5uij" class="animable"></path><path d="M255.9,420.21a.67.67,0,0,0,.37-.15,25.46,25.46,0,0,1,15.33-5.24.73.73,0,1,0-.05-1.45,27,27,0,0,0-16.17,5.55.72.72,0,0,0-.12,1A.71.71,0,0,0,255.9,420.21Z" style="fill: rgb(235, 235, 235); transform-origin: 263.749px 416.788px 0px;" id="el5p469mam1xb" class="animable"></path><path d="M303.23,276c.28-10.19.81-22.69-.45-45.1-1.54-27.62-6.5-38.8-7.49-43.8-11,7.32-44.53,4-61.43-1.76-2.11,3.3-5,8.94-7.92,21-2.89,11.69-5,22.19-2.19,39.1,1.92,11.45,6.68,40.49,10.17,56.18s1.45,28.19,1.45,36.64c0,14,4.79,29.85,9,53.3,0,0,3.64,2.91,10.94,2.91a33.09,33.09,0,0,0,12.79-2.57L273.71,334s9.09-10.61,15.62-19S302.7,295.23,303.23,276Z" style="fill: rgb(69, 90, 100); transform-origin: 263.005px 289.905px 0px;" id="elgevib3vy9xp" class="animable"></path><path d="M273.71,334c2.12-20.24,2.32-28.22,2.32-41,0-14.89-4.17-61.75-4.17-61.75s12.09-4.63,18-15.09c-4,13.4-13.43,18.06-13.43,18.06s2.11,43.56,1.52,66S273.71,334,273.71,334Z" style="fill: rgb(55, 71, 79); transform-origin: 280.86px 275.08px 0px;" id="el2fb3z9615a8" class="animable"></path></g><g id="freepik--Top--inject-82" style="transform-origin: 264.673px 142.163px 0px;" class="animable"><path d="M181.56,164c0-.19,0-.38,0-.57A1.24,1.24,0,0,0,181.56,164Zm89.5-36a37.7,37.7,0,0,0-.65-23.34c-2.21-6.12-6-11.55-8.57-17.51s-4-13-1.25-18.88c.87-1.87,2.14-3.65,2.21-5.71s-1.94-4.31-3.82-3.47l-30.16,2.26c-10.11,4.83-12,16-11.5,26.62.44,9.93-.2,20.08-3.06,29.6a22.26,22.26,0,0,1-4,8.06c-5.29,6.26-14.6,7.19-22.75,6.26A35.34,35.34,0,0,0,200.3,135c-11.65,3.83-19.79,16.25-18.77,28.45.15-1,1.51-1.72,2.66-1.86,6.12-.73,11.71,3.16,17,6.34,20.65,12.42,47.63,15.71,69.06,4.69a32.35,32.35,0,0,1-5.69-27.24C266.07,139.35,269.29,133.91,271.06,128Z" style="fill: rgb(38, 50, 56); transform-origin: 227.023px 119.113px 0px;" id="elq9u6o5l6jk" class="animable"></path><path d="M272.74,114.74c11.93-2,15.63-1.14,24.74,1,5.94,1.41,22,5.72,22.22,5.82-2.65-9.66-5.85-17.55-7.78-20.45l-2.74-11.3a2.27,2.27,0,0,0,.47-1.93c-.25-1-.35-2.07-.51-3.11a63.71,63.71,0,0,0-1.42-6.86,40.84,40.84,0,0,0-2.24-6c-.74-1.65-1.22-4.23,1.25-4.52a8.76,8.76,0,0,1,1.84.25c1.21.1,2.15-.76,3.22-1.06s2.18.59,3.14,1a11.25,11.25,0,0,0,2.78.41,8.4,8.4,0,0,1,2.49,1.4,10.34,10.34,0,0,1,3.29,3.45A22,22,0,0,1,325,75.68a32.12,32.12,0,0,1,1.94,5.64,60.15,60.15,0,0,1,1.52,8.83c.19,2,0,4,.31,6s.7,3.3,2.41,6.55c1.27,2.43,4.84,9.5,9,17.23,2.79,5.19,9.48,15.14,7.29,22.19s-8.5,6.48-19.65,5.34-42.2-6.5-42.2-6.5Z" style="fill: rgb(200, 133, 106); transform-origin: 310.321px 107.334px 0px;" id="el7gt813hbh3h" class="animable"></path><path d="M319.7,121.59c1.6,5.67,2.6,11.77,6.57,16.91,0,0-7.29-4.32-11-18.13Z" style="fill: rgb(177, 102, 104); transform-origin: 320.77px 129.435px 0px;" id="els3od0tk8xr" class="animable"></path><g id="freepik--Chest--inject-82" style="transform-origin: 259.363px 159.475px 0px;" class="animable"><path d="M260.88,203.55c-23.71,0-31.66-7.42-31.74-7.49-1.26-1.18-.13-4,1.19-7.26,1.43-3.55,3.21-8,2.63-12.16s-2.41-7.38-4.75-11.46c-1.18-2.06-2.52-4.41-3.91-7.24-4.45-8.52-5.64-17.6-3.27-24.92A16.5,16.5,0,0,1,229,123l23.57-5.83,20-2c1.87,1.52,19.76,16.19,24.68,27.27,5.13,11.57-3.14,21-3.22,21.07l-.08.08,0,.11c-1.08,3.59.24,9.57,1.51,15.35,1.24,5.62,2.52,11.43,1,13.31l0,.06,0,.06c0,.1-4.61,10-31.38,10.92-1.39.05-2.77.07-4.1.07Z" style="fill: rgb(250, 250, 250); transform-origin: 259.381px 159.36px 0px;" id="el2v4z9ymp1wo" class="animable"></path><path d="M272.43,115.77c2.53,2.06,19.62,16.24,24.37,27,5,11.26-2.8,20.15-3.14,20.52l-.15.17-.06.21c-1.11,3.72.22,9.76,1.5,15.61,1.16,5.25,2.47,11.19,1.1,12.89l-.08.11-.06.12c0,.1-4.59,9.74-30.94,10.62-1.38.05-2.75.07-4.09.07-23.44,0-31.32-7.28-31.4-7.36-1-.94.12-3.74,1.31-6.71,1.45-3.6,3.26-8.09,2.67-12.41s-2.45-7.51-4.81-11.63c-1.18-2.07-2.52-4.4-3.92-7.24-4.38-8.39-5.55-17.33-3.22-24.53a16.07,16.07,0,0,1,7.64-9.66l23.45-5.8,19.83-1.94m.31-1-20.31,2-23.63,5.84c-9.36,4.68-13.17,19.87-5,35.6,4.15,8.46,7.78,12.43,8.62,18.55,1.1,8-6.72,16.86-3.68,19.71,0,0,7.83,7.63,32.09,7.63,1.33,0,2.7,0,4.13-.07,27.51-.92,31.82-11.23,31.82-11.23,3.24-4-4.56-21.71-2.42-28.83,0,0,8.63-9.58,3.31-21.6s-25-27.58-25-27.58Z" style="fill: rgb(224, 224, 224); transform-origin: 259.363px 159.475px 0px;" id="elfad25hqlczf" class="animable"></path><g id="elcnmm74jwk4"><path d="M247.33,165.08a18.33,18.33,0,0,0,16.38,7.4,18.1,18.1,0,0,0,14.19-9.28s-1.51,11.44-15.13,12.16S247.33,165.08,247.33,165.08Z" style="opacity: 0.1; transform-origin: 262.615px 169.297px 0px;" class="animable"></path></g></g><g id="freepik--chest--inject-82" style="transform-origin: 250.497px 91.8909px 0px;" class="animable"><path d="M240.87,107.53a23.66,23.66,0,0,0-5.3-6.4c-5-3.74-10.69-9.94-11.81-15.73-1.88-9.74-.69-17.49,5.06-24.06,6.29-17.42,51.14-16.73,45.76,13.39Z" style="fill: rgb(38, 50, 56); transform-origin: 248.981px 78.6709px 0px;" id="eladrl78418si" class="animable"></path><path d="M262,64.57a15.19,15.19,0,0,1,4,.47,11.76,11.76,0,0,1,6.16,3.9c1.23,1.45,1.71,3.57,2.31,5.35a85,85,0,0,1,2.35,8.9c3.23,14.73-.63,19.5-2.76,21.13s-6.69,2.91-11.34,3.25l-.21,10.9s9,7.68,7.64,15.5c-20.7-.88-29.45-12.52-29.45-12.52L241,99.52a5.16,5.16,0,0,1-5.92,1.46,9,9,0,0,1-6.14-8.53,8.05,8.05,0,0,1,.53-3,4.88,4.88,0,0,1,3.74-2.79,5.39,5.39,0,0,1,3.38.66c.85.48,1.55,1.68,2.68,1.33s1.16-1.88,1-2.9a7.28,7.28,0,0,1,.17-4.06A31,31,0,0,1,242.06,79a11.35,11.35,0,0,0-.74-12.38,14.47,14.47,0,0,0,6.09.61c1.93-.36,3.88-.79,5.8-1.25A39,39,0,0,1,262,64.57Z" style="fill: rgb(200, 133, 106); transform-origin: 253.499px 99.269px 0px;" id="elyyzrt3xsp3d" class="animable"></path><polygon points="260.78 75.67 265.15 89.66 271.69 84.8 260.78 75.67" style="fill: rgb(177, 102, 104); transform-origin: 266.235px 82.665px 0px;" id="el7noijjkl0yt" class="animable"></polygon><path d="M262.69,107.57c-4.24.18-13-.14-18.41-6.33a15.14,15.14,0,0,0,4.83,6.36c4.82,3.27,13.5,4,13.5,4Z" style="fill: rgb(177, 102, 104); transform-origin: 253.485px 106.42px 0px;" id="elk9ug4yqq2c" class="animable"></path><path d="M253.49,74.77l-3.59,4.28a2.93,2.93,0,0,1-.34-4A2.73,2.73,0,0,1,253.49,74.77Z" style="fill: rgb(38, 50, 56); transform-origin: 251.208px 76.5576px 0px;" id="el8lxo015gpij" class="animable"></path><path d="M271.52,72.32,266,71.37A2.7,2.7,0,0,1,269.12,69,3,3,0,0,1,271.52,72.32Z" style="fill: rgb(38, 50, 56); transform-origin: 268.772px 70.6423px 0px;" id="el6dtz5bxcvdq" class="animable"></path><path d="M258.83,81.12a2.29,2.29,0,0,0-2.08-.72,4.48,4.48,0,0,0-1.78.53,3.43,3.43,0,0,0-1.5,1.75,3.2,3.2,0,0,0-.14,1.37c0,.31.54-.39.6-.47A4.74,4.74,0,0,1,256,81.89a3.89,3.89,0,0,1,1.29-.36,9.31,9.31,0,0,1,1.27,0C258.88,81.5,259.05,81.41,258.83,81.12Z" style="fill: rgb(38, 50, 56); transform-origin: 256.119px 82.2482px 0px;" id="elrdlez9gxoz" class="animable"></path><path d="M267.39,78.87a2.3,2.3,0,0,1,1.34-1.74,4.51,4.51,0,0,1,1.79-.52,3.37,3.37,0,0,1,2.21.65,3.09,3.09,0,0,1,.86,1.07c.13.28-.66,0-.76-.07a4.83,4.83,0,0,0-2.66-.29,4.22,4.22,0,0,0-1.27.4,12.15,12.15,0,0,0-1.08.67C267.55,79.22,267.36,79.23,267.39,78.87Z" style="fill: rgb(38, 50, 56); transform-origin: 270.496px 77.8827px 0px;" id="eljkmvmvwte2f" class="animable"></path><path d="M265.29,93.58a1.77,1.77,0,0,0-.61,1.37,1.36,1.36,0,0,0,.85,1.2,1.22,1.22,0,0,0,1.16-.21,1.29,1.29,0,0,0,.12-1.71,1,1,0,0,0-.88-.35.88.88,0,0,1,.6-.74A1.56,1.56,0,0,0,265.29,93.58Z" style="fill: rgb(177, 102, 104); transform-origin: 265.879px 94.6735px 0px;" id="eldcb4ziv1nh" class="animable"></path></g><g id="freepik--bottle-of-water--inject-82" style="transform-origin: 308.74px 75.0747px 0px;" class="animable"><path d="M283.46,89.67l-1.38.51a1,1,0,0,1-.25.06,1.94,1.94,0,0,1-1.51-.56A5,5,0,0,1,279,87.76a5.37,5.37,0,0,1-.39-2.89,2.37,2.37,0,0,1,.38-1,1.25,1.25,0,0,1,.43-.4.57.57,0,0,1,.22-.11l1.4-.52a1.78,1.78,0,0,1,1.74.5l.17.14a5.69,5.69,0,0,1,1.56,4.67A1.79,1.79,0,0,1,283.46,89.67Z" style="fill: rgb(17, 153, 142); transform-origin: 281.556px 86.5141px 0px;" id="elkulfmbqoa8d" class="animable"></path><g id="elo2bxk2przbb"><path d="M283.46,89.67l-1.38.51a1,1,0,0,1-.25.06,1.94,1.94,0,0,1-1.51-.56A5,5,0,0,1,279,87.76a5.37,5.37,0,0,1-.39-2.89,2.37,2.37,0,0,1,.38-1,1.25,1.25,0,0,1,.43-.4.57.57,0,0,1,.22-.11l1.4-.52a1.78,1.78,0,0,1,1.74.5l.17.14a5.69,5.69,0,0,1,1.56,4.67A1.79,1.79,0,0,1,283.46,89.67Z" style="opacity: 0.2; transform-origin: 281.556px 86.5141px 0px;" class="animable"></path></g><path d="M283.48,89.66c-1.08.39-2.51-.82-3.18-2.7s-.34-3.72.74-4.1,2.5.82,3.17,2.7S284.56,89.28,283.48,89.66Z" style="fill: rgb(17, 153, 142); transform-origin: 282.256px 86.2614px 0px;" id="elvb51f4pvgqb" class="animable"></path><g id="eld2rpjh61qh6"><path d="M282.69,87.47c-.38.14-.89-.29-1.13-1s-.12-1.32.26-1.46.89.29,1.13,1S283.07,87.33,282.69,87.47Z" style="fill: rgb(17, 153, 142); opacity: 0.5; transform-origin: 282.255px 86.24px 0px;" class="animable"></path></g><g id="elqf0316gfqqb"><path d="M282.69,87.47c-.38.14-.89-.29-1.13-1s-.12-1.32.26-1.46.89.29,1.13,1S283.07,87.33,282.69,87.47Z" style="opacity: 0.3; transform-origin: 282.255px 86.24px 0px;" class="animable"></path></g><path d="M287.94,87.33l-4.08,1.46a.65.65,0,0,1-.2,0,1.56,1.56,0,0,1-1.21-.44,4,4,0,0,1-1.06-1.55,4.23,4.23,0,0,1-.32-2.32,1.85,1.85,0,0,1,.31-.78,1.07,1.07,0,0,1,.34-.33.75.75,0,0,1,.18-.08L286,81.87a1.46,1.46,0,0,1,1.4.4l.13.12a4.54,4.54,0,0,1,1.25,3.74A1.4,1.4,0,0,1,287.94,87.33Z" style="fill: rgb(17, 153, 142); transform-origin: 284.922px 85.3123px 0px;" id="elc68syvtl3op" class="animable"></path><g id="el7zf4z5755x"><path d="M287.94,87.33l-4.08,1.46a.65.65,0,0,1-.2,0,1.56,1.56,0,0,1-1.21-.44,4,4,0,0,1-1.06-1.55,4.23,4.23,0,0,1-.32-2.32,1.85,1.85,0,0,1,.31-.78,1.07,1.07,0,0,1,.34-.33.75.75,0,0,1,.18-.08L286,81.87a1.46,1.46,0,0,1,1.4.4l.13.12a4.54,4.54,0,0,1,1.25,3.74A1.4,1.4,0,0,1,287.94,87.33Z" style="opacity: 0.35; transform-origin: 284.922px 85.3123px 0px;" class="animable"></path></g><path d="M288,87.33c-.86.31-2-.66-2.54-2.17s-.28-3,.59-3.29,2,.66,2.54,2.17S288.82,87,288,87.33Z" style="fill: rgb(17, 153, 142); transform-origin: 287.019px 84.6028px 0px;" id="elicodneqp2c" class="animable"></path><g id="el2jf0w794y4y"><path d="M287.32,85.57c-.31.11-.71-.24-.9-.77s-.1-1.06.21-1.17.71.23.9.77S287.63,85.46,287.32,85.57Z" style="fill: rgb(17, 153, 142); opacity: 0.5; transform-origin: 286.975px 84.5998px 0px;" class="animable"></path></g><g id="elz04v8yd6d2"><path d="M287.32,85.57c-.31.11-.71-.24-.9-.77s-.1-1.06.21-1.17.71.23.9.77S287.63,85.46,287.32,85.57Z" style="opacity: 0.3; transform-origin: 286.975px 84.5998px 0px;" class="animable"></path></g><path d="M286,74.88l-.93.33c-1.33.46-2.35,1.81-2.75,3.93a14.9,14.9,0,0,0,4.5,12.7,6.37,6.37,0,0,0,2.41,1.36,3.59,3.59,0,0,0,2.18,0l1-.34a2.62,2.62,0,0,0,.58-.29,5.06,5.06,0,0,0,2.16-3.64.8.8,0,0,0,0-.15,15,15,0,0,0-4.52-12.55,5.14,5.14,0,0,0-4-1.48A2.47,2.47,0,0,0,286,74.88Z" style="fill: rgb(55, 71, 79); transform-origin: 288.723px 84.0528px 0px;" id="el973sygf0gui" class="animable"></path><path d="M283.71,85l3.3-1.17c1.31-.46-.58-.17.23,2.12.71,2,5.92,2.14,7.85,2.85a.8.8,0,0,1,0,.15,5.06,5.06,0,0,1-2.16,3.64,2.62,2.62,0,0,1-.58.29l-1,.34a3.59,3.59,0,0,1-2.18,0,6.37,6.37,0,0,1-2.41-1.36,14.9,14.9,0,0,1-4.5-12.7C282.17,82,282.46,85.39,283.71,85Z" style="fill: rgb(38, 50, 56); transform-origin: 288.615px 86.2747px 0px;" id="elx24p85urpop" class="animable"></path><path d="M287.73,91.49c3.26,2.79,6.55,1.63,7.33-2.59a14.92,14.92,0,0,0-4.49-12.7c-3.27-2.79-6.55-1.63-7.33,2.6A14.84,14.84,0,0,0,287.73,91.49Z" style="fill: rgb(17, 153, 142); transform-origin: 289.148px 83.8453px 0px;" id="elsszsjt36y2j" class="animable"></path><path d="M289.06,73.77l-1.85.66a3.41,3.41,0,0,0-.61.29,5.16,5.16,0,0,0-2.15,3.65,13.18,13.18,0,0,0,.5,6.14,14.07,14.07,0,0,0,4,6.56,6.51,6.51,0,0,0,2.41,1.36,3.55,3.55,0,0,0,1.54.11,2.62,2.62,0,0,0,.63-.14l1.9-.68c1.34-.47,2.35-1.81,2.75-3.92,0-.19.06-.37.08-.57a15,15,0,0,0-4.58-12.13C292,73.7,290.39,73.29,289.06,73.77Z" style="fill: rgb(55, 71, 79); transform-origin: 291.304px 83.0783px 0px;" id="elsmeg8346w8m" class="animable"></path><path d="M290.88,90.38c3.27,2.79,6.55,1.63,7.33-2.6a14.84,14.84,0,0,0-4.49-12.69c-3.26-2.79-6.54-1.63-7.33,2.59A14.92,14.92,0,0,0,290.88,90.38Z" style="fill: rgb(69, 90, 100); transform-origin: 292.302px 82.7347px 0px;" id="elqeen9gnvheg" class="animable"></path><g id="el34ymltaujps"><path d="M291.36,92.43A6.51,6.51,0,0,1,289,91.07a14.07,14.07,0,0,1-4-6.56h0c.64-.26,1-.8,2.29,1.39,1.07,1.82,2.9,4.42,5.52,5,2.4.55,4.73-1.08,5.5-3.68,0,.2-.05.38-.08.57-.4,2.11-1.41,3.45-2.75,3.92l-1.9.68a2.62,2.62,0,0,1-.63.14A3.55,3.55,0,0,1,291.36,92.43Z" style="opacity: 0.2; transform-origin: 291.655px 88.4168px 0px;" class="animable"></path></g><path d="M334.87,81.92,302,93.43c-1.86.65-4.15.07-6.43-1.89a12.62,12.62,0,0,1-1.41-1.42,3.38,3.38,0,0,0-.71-.6,6.82,6.82,0,0,1-.94-.67,12.92,12.92,0,0,1-3.9-11,5.62,5.62,0,0,1,.25-1c0-.1.07-.2.1-.29a3.21,3.21,0,0,0,.15-.83,13,13,0,0,1,.22-2c.56-2.95,2-4.84,3.85-5.49L326,56.74c1.86-.66,4.16-.08,6.44,1.88,4.56,3.92,7.35,11.9,6.24,17.81C338.16,79.38,336.73,81.26,334.87,81.92Z" style="fill: rgb(17, 153, 142); transform-origin: 313.714px 75.082px 0px;" id="elhh1dre5c5io" class="animable"></path><g id="ely9a1tjg9pfk"><path d="M334.87,81.92,302,93.43c-1.86.65-4.15.07-6.43-1.89a12.62,12.62,0,0,1-1.41-1.42,3.38,3.38,0,0,0-.71-.6,6.82,6.82,0,0,1-.94-.67,12.92,12.92,0,0,1-3.9-11,5.62,5.62,0,0,1,.25-1c0-.1.07-.2.1-.29a3.21,3.21,0,0,0,.15-.83,13,13,0,0,1,.22-2c.56-2.95,2-4.84,3.85-5.49L326,56.74c1.86-.66,4.16-.08,6.44,1.88,4.56,3.92,7.35,11.9,6.24,17.81C338.16,79.38,336.73,81.26,334.87,81.92Z" style="opacity: 0.2; transform-origin: 313.714px 75.082px 0px;" class="animable"></path></g><g id="eluu49uas7cv"><path d="M300.48,91.61A5.68,5.68,0,0,1,296.94,90a10.38,10.38,0,0,1-1.2-1.19,4.94,4.94,0,0,0-1.18-1,4.72,4.72,0,0,1-.7-.5,10.78,10.78,0,0,1-3.2-9.08,3.64,3.64,0,0,1,.16-.65l.13-.34a5.87,5.87,0,0,0,.24-1.4,11.51,11.51,0,0,1,.19-1.69c.39-2.06,1.3-3.48,2.5-3.91l7.5-2.63c.74-.26,1.69-.61,2.48-.87a16.88,16.88,0,0,1,4.26-1.08,5.78,5.78,0,0,1,3.54.6,18,18,0,0,1,2.2,1.61,12.09,12.09,0,0,0,5.91,2.36,12.09,12.09,0,0,1,2.41.36c1.28.43,2.26,1.47,3.45,2.11,2.33,1.26,4.91.64,7.37,1a4.41,4.41,0,0,1,2,.58,3.23,3.23,0,0,1,1.22,3.12A3.2,3.2,0,0,1,334.18,80l.13,0c-.28.07-2.81,1-33,11.53A2.45,2.45,0,0,1,300.48,91.61Z" style="fill: rgb(255, 255, 255); opacity: 0.4; transform-origin: 313.423px 78.6069px 0px;" class="animable"></path></g><g id="elewzeckjxcf"><path d="M337.63,75.94c-1,5.4-5.16,6.86-9.31,3.27s-6.7-10.89-5.7-16.29,5.16-6.85,9.3-3.26S338.63,70.55,337.63,75.94Z" style="opacity: 0.2; transform-origin: 330.124px 69.4335px 0px;" class="animable"></path></g><g id="elssasqxh4l"><path d="M302,93.43l11.39-4,21.47-7.53c1.86-.65,3.29-2.53,3.85-5.48A14.05,14.05,0,0,0,338.9,75l0-.39c0-.44,0-.89,0-1.34V73c0-.52-.07-1.06-.14-1.6,0-.09,0-.19,0-.29-.06-.49-.15-1-.25-1.49l0-.15A23.74,23.74,0,0,0,337.44,66h0a23,23,0,0,0-1.59-3.27c4.28,10,.81,14-2.33,15.08L301.35,89.11a5,5,0,0,1-1.87.35,5.32,5.32,0,0,1-2.31-.86,13.37,13.37,0,0,0-3.5-1.9,8.77,8.77,0,0,0-3.24-.4,10.38,10.38,0,0,0,2.09,2.55,6.82,6.82,0,0,0,.94.67,3.38,3.38,0,0,1,.71.6,12.62,12.62,0,0,0,1.41,1.42C297.86,93.5,300.15,94.08,302,93.43Z" style="opacity: 0.15; transform-origin: 314.665px 78.2075px 0px;" class="animable"></path></g><g id="eliey5cncs3"><path d="M288.61,79.31l-.14,0a8.67,8.67,0,0,1,.15-1.55,5.62,5.62,0,0,1,.25-1c0-.1.07-.2.1-.29a3.21,3.21,0,0,0,.15-.83,13,13,0,0,1,.22-2c.56-2.95,2-4.84,3.85-5.49L326,56.74c2-.69,4.18-.09,6.46,1.87a14.87,14.87,0,0,1,1.92,2c-3.36-3.43-6.88-3.23-9.1-2.45l-25.59,9a56.8,56.8,0,0,0-7.3,2.73c-1.2.69-2.26,3.57-2.56,5.24h0c-.07.38-.12.7-.16.93C289.53,77.25,289.62,79,288.61,79.31Z" style="fill: rgb(255, 255, 255); opacity: 0.4; transform-origin: 311.425px 67.8873px 0px;" class="animable"></path></g></g><path id="freepik--Thumb--inject-82" d="M299.46,90a9,9,0,0,1,5.14.65,5.49,5.49,0,0,0,3.6.69c.51-.15,1.31-.49,1.31-.49l2.74,10.88c-2.08-2-5.74-2.77-7.65-4.68s-6-4-6.66-4.65C296.43,91,298.44,90.12,299.46,90Z" style="fill: rgb(200, 133, 106); transform-origin: 304.823px 95.803px 0px;" class="animable"></path><g id="freepik--Arm--inject-82" style="transform-origin: 212.924px 178.537px 0px;" class="animable"><path d="M221.46,232.56c-1.64-1.5-3.69-2.77-4.51-4.93a3.81,3.81,0,0,1,.24-3.42,1.79,1.79,0,0,0,.35-.65,1.44,1.44,0,0,0-.09-.61,4.13,4.13,0,0,1,0-2.53,2.58,2.58,0,0,1,1.48-1.5,6.07,6.07,0,0,1-.3-3.81c.37-1.48,1.75-2.77,2.87-1.24a13.48,13.48,0,0,1,1.36,2.43,29.92,29.92,0,0,1,2,6.61c.46,2.37,1.63,9.07-2,9.72C222.51,232.68,221.69,232.77,221.46,232.56Z" style="fill: rgb(177, 102, 104); transform-origin: 221.032px 222.937px 0px;" id="elxj0nun7ws0e" class="animable"></path><path d="M228.8,122.56c-14.22,3.39-14.92,7.8-22.37,20.23-7.35,12.27-17.66,28.88-19.8,34.8-2.66,7.33-3.11,10.09,5.08,16.92,4.23,3.53,10.06,7.65,16,12.36,4.71,3.72,10.33,7.61,14.91,11.48a3.86,3.86,0,0,1,1.66,3.77,26.55,26.55,0,0,0-.49,2.92,24.39,24.39,0,0,0,.63,3.76,3.31,3.31,0,0,1-1.2,3.39,3.74,3.74,0,0,1-1.79.37,13,13,0,0,0,3.65,1.59,5.3,5.3,0,0,0,3.87-.48c1.11-.66,1.88-1.83,3.08-2.31.65-.26,1.37-.29,2-.53a3.35,3.35,0,0,0,1.66-1.3c.63-.95.81-2.25,1.75-2.88A14.38,14.38,0,0,1,239,226a3.43,3.43,0,0,0,1.68-2.71,9.48,9.48,0,0,0-.37-3.3,82.55,82.55,0,0,0-2.57-8.56,8.74,8.74,0,0,0-1.64-2.56c-.76-.9-1.48-1.84-2.28-2.69C228.36,200.38,211,181,211,181L230.85,155S239.83,142.06,228.8,122.56Z" style="fill: rgb(200, 133, 106); transform-origin: 212.804px 178.44px 0px;" id="elwx2tdzb8wgk" class="animable"></path><path d="M221.46,232.56c2.64,1.65,6.42,2.66,8.72-.05a5.63,5.63,0,0,1,2-1.4c1.59-.33,3.12-.73,3.7-2.4a5.59,5.59,0,0,1,1.28-2.15c.75-.58,1.61-.58,2.12-1.1a3.33,3.33,0,0,0,1-1.93c.19-3.78-1.66-7.89-2.75-11.53-.77-2.28-2.7-3.85-4.14-5.73l-3.23-3.6C224,195.72,217.11,188,211,181c6.37,6.76,13.37,14.4,19.66,21.31l3.25,3.58c1.49,1.89,3.54,3.57,4.28,5.94s1.5,4.62,2.1,7a12.05,12.05,0,0,1,.61,4.88,3.83,3.83,0,0,1-1.23,2.23c-.69.62-1.63.64-2.16,1.08a5.09,5.09,0,0,0-1.18,2,3.78,3.78,0,0,1-1.65,1.88,10.49,10.49,0,0,1-2.35.68c-1.53.48-2.41,2.13-4,2.64-2.4.85-4.89-.29-6.9-1.54Z" style="fill: rgb(177, 102, 104); transform-origin: 225.97px 207.757px 0px;" id="elmw3l0042t9m" class="animable"></path><path d="M211,181c-3.95,4.63-10.64,5.56-13.13,5.63a14.23,14.23,0,0,0,14.7-3.88Z" style="fill: rgb(177, 102, 104); transform-origin: 205.22px 184.145px 0px;" id="elc3jfg6lyvvm" class="animable"></path></g></g></g><g id="freepik--water-drop--inject-82" style="transform-origin: 255.018px 414.718px 0px;" class="animable"><path d="M184.57,445.93c-8.6-7.52-11.92-14.86-14.08-25.75-1.13-5.69-7-8.79-6.35-14.76.37-3.58,2.16-6.83,3.24-10.26a26.5,26.5,0,0,0,1-10.84,11.18,11.18,0,0,0-1.29-4.43c-2.83-4.78-8.45-2.78-13.1-2.66-3.92.1-9-.24-11.17-4a8.34,8.34,0,0,1,.71-9.1c1.94-2.41,5.37-3,8.46-2.86,17.24.93,25.37,17.27,26.07,33,.22,5.12-.16,10.46,1.94,15.13,4.54,10.06,16.91,2.35,20.74,12.57,1,2.7,1.25,5.63,2,8.43a21,21,0,0,0,9.75,13,6.46,6.46,0,0,0,6.19.43,6.68,6.68,0,0,0,2.7-3.07c2.21-4.59.9-10,.11-15s-.62-11,3.4-14.14c4.45-3.46,9.5-2,12.93,2.08,3.82,4.55,1.8,7.77-.14,13.09a39.43,39.43,0,0,0-2.1,8.78c-.44,3.64,0,8,3.19,9.87,3.39,2,7.7-.26,10.49-3,1.63-1.62,3.31-6.67,5.88-7.16,4.33-.83,6.23,10.42,9.15,13.21,2.72,2.6,7,4,10.33,2.31,2.36-1.17,3.85-3.54,5.15-5.84A144.27,144.27,0,0,0,290.57,421c.77-2.23,1.56-4.59,3.33-6.14s4.87-1.86,6.28,0c.43.56.66,1.26,1.11,1.8,1.28,1.54,3.88,1.19,5.38-.14s2.19-3.31,2.95-5.17a51.11,51.11,0,0,1,14.64-20c1.55-1.28,4.72-1.87,4.85.14a3.06,3.06,0,0,1-.8,1.85,24.6,24.6,0,0,0-4.44,11.46c-.11,1-.09,2.12.71,2.68,1,.68,2.27,0,3.2-.74a35.8,35.8,0,0,0,12.39-18.67c1.81-6.64,1.95-14.31,6.83-19.17,5.36-5.33,15.58-4.2,19.66,2.16,1.51,2.35,2.18,5.47.92,8-1.63,3.23-5.64,4.25-9,5.54-7.95,3.05-14.36,9.36-18.74,16.67s-6.88,15.58-8.69,23.91a31.67,31.67,0,0,1-5.1,12.42c-12.42,16.7-33,30.63-72.81,30.63S189.76,450.47,184.57,445.93Z" style="fill: rgb(17, 153, 142); transform-origin: 255.018px 414.74px 0px;" id="elmf3alv0ufe9" class="animable"></path><g id="el8f05139zt3p"><path d="M184.57,445.93c-8.6-7.52-11.92-14.86-14.08-25.75-1.13-5.69-7-8.79-6.35-14.76.37-3.58,2.16-6.83,3.24-10.26a26.5,26.5,0,0,0,1-10.84,11.18,11.18,0,0,0-1.29-4.43c-2.83-4.78-8.45-2.78-13.1-2.66-3.92.1-9-.24-11.17-4a8.34,8.34,0,0,1,.71-9.1c1.94-2.41,5.37-3,8.46-2.86,17.24.93,25.37,17.27,26.07,33,.22,5.12-.16,10.46,1.94,15.13,4.54,10.06,16.91,2.35,20.74,12.57,1,2.7,1.25,5.63,2,8.43a21,21,0,0,0,9.75,13,6.46,6.46,0,0,0,6.19.43,6.68,6.68,0,0,0,2.7-3.07c2.21-4.59.9-10,.11-15s-.62-11,3.4-14.14c4.45-3.46,9.5-2,12.93,2.08,3.82,4.55,1.8,7.77-.14,13.09a39.43,39.43,0,0,0-2.1,8.78c-.44,3.64,0,8,3.19,9.87,3.39,2,7.7-.26,10.49-3,1.63-1.62,3.31-6.67,5.88-7.16,4.33-.83,6.23,10.42,9.15,13.21,2.72,2.6,7,4,10.33,2.31,2.36-1.17,3.85-3.54,5.15-5.84A144.27,144.27,0,0,0,290.57,421c.77-2.23,1.56-4.59,3.33-6.14s4.87-1.86,6.28,0c.43.56.66,1.26,1.11,1.8,1.28,1.54,3.88,1.19,5.38-.14s2.19-3.31,2.95-5.17a51.11,51.11,0,0,1,14.64-20c1.55-1.28,4.72-1.87,4.85.14a3.06,3.06,0,0,1-.8,1.85,24.6,24.6,0,0,0-4.44,11.46c-.11,1-.09,2.12.71,2.68,1,.68,2.27,0,3.2-.74a35.8,35.8,0,0,0,12.39-18.67c1.81-6.64,1.95-14.31,6.83-19.17,5.36-5.33,15.58-4.2,19.66,2.16,1.51,2.35,2.18,5.47.92,8-1.63,3.23-5.64,4.25-9,5.54-7.95,3.05-14.36,9.36-18.74,16.67s-6.88,15.58-8.69,23.91a31.67,31.67,0,0,1-5.1,12.42c-12.42,16.7-33,30.63-72.81,30.63S189.76,450.47,184.57,445.93Z" style="fill: rgb(255, 255, 255); opacity: 0.4; transform-origin: 255.018px 414.74px 0px;" class="animable"></path></g><g id="elu5ux2bv7r3"><path d="M253.05,465.81c-20.46-1.19-43.44-8.32-60.07-20.29a40.18,40.18,0,0,1-14.69-20.16c-1.58-4.72-.69-8.07-4.08-11.72-2.12-2.27-5.73-3.77-7.37-6.48-1.37-2.28-1.23-5.43-.91-8.08a24.89,24.89,0,0,0-1.79,6.34c-.61,6,5.22,9.07,6.35,14.76,2.16,10.89,5.48,18.23,14.08,25.75,5.19,4.54,28.83,22.28,68.64,22.28,15.27,0,27.7-2,37.94-5.53C278.54,465,265.82,466.55,253.05,465.81Zm-15-16.65c2.77,1.15,6.08.07,8.25-2a14.59,14.59,0,0,0,3.37-5.3,4.08,4.08,0,0,1-.41.49c-2.79,2.76-7.1,5-10.5,3-3.17-1.83-3.62-6.23-3.18-9.87.07-.58.16-1.16.26-1.74a19,19,0,0,0-2.19,6.85C233.37,444,234.89,447.85,238.06,449.16Zm-35.55-5.57a19.43,19.43,0,0,0,12.1,4,13.39,13.39,0,0,0,5.4-.92c4.28-1.83,6.51-6.48,8.37-10.76a19.52,19.52,0,0,0,1.79-5.54,6.65,6.65,0,0,0-1.55-5.43,25.8,25.8,0,0,0-3.55-2.42,8.12,8.12,0,0,1-3.13-6.68,21,21,0,0,0-.44,9.84c.79,5,2.1,10.44-.11,15a6.68,6.68,0,0,1-2.7,3.07,6.46,6.46,0,0,1-6.19-.43,21,21,0,0,1-9.75-13c-.72-2.8-1-5.73-2-8.43a9.69,9.69,0,0,0-1.45-2.62,10.28,10.28,0,0,1,.06,3.54c-.49,3.18-2,6.17-2.17,9.38A13.92,13.92,0,0,0,202.51,443.59Zm-35.38-63.7a11.18,11.18,0,0,1,1.29,4.43,28,28,0,0,1,.16,3,9.19,9.19,0,0,0,1.45-4.91c-.09-3.55-2.91-6.53-6.08-8.14s-6.76-2.18-10.16-3.23a10.6,10.6,0,0,1-4.39-2.27,4.47,4.47,0,0,1-1.33-4.54c.61-1.66,2.39-2.57,4.11-3l-.15,0c-3.09-.16-6.52.45-8.46,2.86a8.34,8.34,0,0,0-.71,9.1c2.2,3.79,7.25,4.13,11.17,4C158.68,377.11,164.3,375.11,167.13,379.89Zm199.53-8.82c-2.91-4.54-9-6.4-14.12-5.16a23.44,23.44,0,0,1,3.16.74,12.67,12.67,0,0,1,5.67,3.13c4.93,5.29-1.72,9.84-5.88,12.34-6.79,4.08-13,10.1-14.82,17.75,4.34-6.71,10.43-12.43,17.88-15.29,3.39-1.29,7.4-2.31,9-5.54C368.84,376.54,368.17,373.42,366.66,371.07Zm-60,45.45c-1.46,1.3-3.94,1.64-5.26.25,1,2.36,2.84,4.94,4.69,5.45,2.66.74,4-2.1,4.8-4.16,1.65-4.24,3.26-8.51,4.82-12.78,1.48-4,3.15-8.34,5.87-11.52a51.17,51.17,0,0,0-12,17.59C308.86,413.21,308.16,415.19,306.67,416.52ZM290.57,421a144.27,144.27,0,0,1-10.79,23.91c-1.3,2.3-2.79,4.67-5.15,5.84-3.37,1.67-7.61.29-10.33-2.31-1.72-1.64-3.09-6.21-4.8-9.53,1.28,5.19,1,11.1,4.76,14.75a10.2,10.2,0,0,0,9.77,2.18c6.69-1.92,10.55-10.21,13-16.17,3-7.32,4.63-15.13,7.35-22.57a8.31,8.31,0,0,1,1.68-3.09,4,4,0,0,1,.38-.34,5.23,5.23,0,0,0-2.55,1.19C292.13,416.38,291.34,418.74,290.57,421Z" style="fill: rgb(17, 153, 142); opacity: 0.3; transform-origin: 255.028px 414.708px 0px;" class="animable"></path></g><g id="el6zltlr2wnpu"><path d="M145.61,364.62c-1,.87-1.75,2.42-1,3.58.83,1.35,2.8,1.17,4.38.95a40.51,40.51,0,0,1,12.29.14c.79.13,3.82,1,4.43.31,1-1.17-2.81-3.27-3.51-3.68C157.46,363.21,150.4,360.62,145.61,364.62Z" style="fill: rgb(255, 255, 255); opacity: 0.3; transform-origin: 155.091px 366.211px 0px;" class="animable"></path></g><g id="eljtb9fsohgd7"><path d="M166.31,401.13c-.29.86-.56,1.73-.8,2.62a8,8,0,0,0,.66,5.76c.47.88,1.65,2.4,2.83,1.95s1.44-2.28,1.43-3.35c0-1.45-.14-2.91-.15-4.35,0-1.63.12-3.28.13-4.92a7.31,7.31,0,0,0-.86-4.26c-.1-.15-.26-.32-.45-.3s-.31.24-.38.43C167.9,396.85,167,399,166.31,401.13Z" style="fill: rgb(255, 255, 255); opacity: 0.3; transform-origin: 167.848px 402.91px 0px;" class="animable"></path></g><g id="elzfmhuef6shk"><path d="M190.48,417.54a3.17,3.17,0,0,0-2.33,1.15c-1,1.27-.37,3.17.76,4.27a17.39,17.39,0,0,0,4,2.44,15.92,15.92,0,0,1,4.78,4c.59.74,1.69,3.57,2.87,3.22a.46.46,0,0,0,.29-.19.68.68,0,0,0,.09-.4c0-.74,0-1.48,0-2.22,0-3.37-.61-6.5-2.88-9.1A9.18,9.18,0,0,0,190.48,417.54Z" style="fill: rgb(255, 255, 255); opacity: 0.3; transform-origin: 194.297px 425.084px 0px;" class="animable"></path></g><g id="ellpkeujbrxkr"><path d="M226.49,415.9a5.11,5.11,0,0,0,1.75,3.25,11.87,11.87,0,0,1,2.45,2.85c.64,1.27.85,3,2.18,3.52s2.45-.48,3.2-1.49c1.61-2.19,2.59-5.67,1.29-8.21-.89-1.74-3.68-4-5.72-4.07S226.42,413.5,226.49,415.9Z" style="fill: rgb(255, 255, 255); opacity: 0.3; transform-origin: 232.225px 418.705px 0px;" class="animable"></path></g><g id="elqizkru1q4i"><path d="M254.35,438.05a2.48,2.48,0,0,0-.27,2.13,8.27,8.27,0,0,0,1,2,48.61,48.61,0,0,1,4.08,8.4,6.77,6.77,0,0,0,1.07,2.13,4.29,4.29,0,0,0,.86-2.39,15.65,15.65,0,0,0-1.54-8.7C258.87,440.23,256.21,435.54,254.35,438.05Z" style="fill: rgb(255, 255, 255); opacity: 0.3; transform-origin: 257.57px 445.017px 0px;" class="animable"></path></g><g id="el1xwqpsgy0bx"><path d="M294.62,417.17a2.52,2.52,0,0,0,1,1.84,19.16,19.16,0,0,0,1.79,1.19,8.47,8.47,0,0,1,2.83,3.2,4,4,0,0,0,.79,1.25,1,1,0,0,0,1.34.1,1.49,1.49,0,0,0,.3-1,11,11,0,0,0-.31-3.71,7.79,7.79,0,0,0-3.48-4.59C297.32,414.64,294.66,415,294.62,417.17Z" style="fill: rgb(255, 255, 255); opacity: 0.3; transform-origin: 298.666px 420.007px 0px;" class="animable"></path></g><g id="elzk05h7o1rtf"><path d="M349.13,370.2a13.25,13.25,0,0,0-4.41,9.3,1.45,1.45,0,0,0,.19.92,1.17,1.17,0,0,0,.66.39c1.81.52,3.58-.78,5.19-1.77a19.08,19.08,0,0,1,7.84-2.72c1.89-.22,4.07-.27,5.28-1.74,2.77-3.39-1.88-6.6-4.68-7.42C355.82,366.18,351.65,368,349.13,370.2Z" style="fill: rgb(255, 255, 255); opacity: 0.3; transform-origin: 354.719px 373.908px 0px;" class="animable"></path></g><g id="elafivxejrx3j"><path d="M353.6,370.88a2.46,2.46,0,0,0,1.44,2.28,10.11,10.11,0,0,0,4.66,1c1.88.07,3.72-1.53,2.75-3.42a4.79,4.79,0,0,0-4.23-2.28C356.47,368.37,354,368.78,353.6,370.88Z" style="fill: rgb(255, 255, 255); opacity: 0.3; transform-origin: 358.159px 371.306px 0px;" class="animable"></path></g><g id="elldmw64yrc2o"><path d="M296.29,417.46a.9.9,0,0,0,.4.37l2.26,1.3a1.15,1.15,0,0,0,1,.22c.38-.18.44-.7.36-1.12a3,3,0,0,0-2.14-2.23C297.41,415.75,295.71,416.23,296.29,417.46Z" style="fill: rgb(255, 255, 255); opacity: 0.3; transform-origin: 298.256px 417.66px 0px;" class="animable"></path></g><g id="el8oi3n67b67"><path d="M230.45,414.55a2.14,2.14,0,0,0,0,1.85,8.22,8.22,0,0,0,1,1.62,19.55,19.55,0,0,1,1.44,2.4,2.67,2.67,0,0,0,1,1.29A1.91,1.91,0,0,0,236,421a4.55,4.55,0,0,0,.34-5.15,7.2,7.2,0,0,0-1.66-1.69C233.57,413.3,231.32,413.11,230.45,414.55Z" style="fill: rgb(255, 255, 255); opacity: 0.3; transform-origin: 233.61px 417.642px 0px;" class="animable"></path></g><g id="elbnhd4ptzgp"><path d="M147.05,364.74a3.47,3.47,0,0,0-1.11,2.18.86.86,0,0,0,.12.63.84.84,0,0,0,.65.26c1.37,0,2.48-1.05,3.77-1.51.66-.23,1.37-.3,2-.49.51-.14,1.08-.45,1.1-1a.9.9,0,0,0-.39-.72,2,2,0,0,0-.77-.33C150.81,363.36,148.37,363.53,147.05,364.74Z" style="fill: rgb(255, 255, 255); opacity: 0.3; transform-origin: 149.752px 365.689px 0px;" class="animable"></path></g></g></g><g id="freepik--Sparkles--inject-82" style="transform-origin: 264.58px 155.595px 0px;" class="animable"><g id="freepik--sparkles--inject-82" style="transform-origin: 264.58px 155.595px 0px;" class="animable"><path d="M320.24,166.36c0,3-.07,5.85-4.38,6.52,4.55-.06,4.21,2.81,4.43,6.4.12-3.59.44-6.17,4-6.34C320.61,172.33,320.7,170.63,320.24,166.36Z" style="fill: rgb(69, 90, 100); transform-origin: 320.075px 172.82px 0px;" id="elu7u4lxb156e" class="animable"></path><path d="M359.16,88.77c0,4.39-.11,8.61-6.44,9.6,6.69-.09,6.19,4.13,6.51,9.41.18-5.28.65-9.07,5.86-9.32C359.7,97.56,359.84,95.06,359.16,88.77Z" style="fill: rgb(69, 90, 100); transform-origin: 358.905px 98.275px 0px;" id="elcbbw18gpeqw" class="animable"></path><path d="M334.77,177.23c.07,5.94-.15,11.67-8.74,13,9.08-.12,8.39,5.6,8.84,12.77.24-7.17.87-12.31,7.94-12.65C335.5,189.14,335.69,185.75,334.77,177.23Z" style="fill: rgb(17, 153, 142); transform-origin: 334.42px 190.115px 0px;" id="elxwdctaj54z9" class="animable"></path><path d="M158.25,88.85c.05,5.13-.13,10.07-7.54,11.22,7.82-.1,7.23,4.83,7.62,11,.2-6.18.75-10.61,6.85-10.91C158.87,99.13,159,96.2,158.25,88.85Z" style="fill: rgb(69, 90, 100); transform-origin: 157.945px 99.96px 0px;" id="elgd3pz07zf0g" class="animable"></path><path d="M185.25,60c.06,5.84-.15,11.46-8.58,12.77,8.91-.12,8.24,5.5,8.67,12.53.24-7,.86-12.08,7.8-12.41C186,71.73,186.15,68.4,185.25,60Z" style="fill: rgb(17, 153, 142); transform-origin: 184.905px 72.65px 0px;" id="ell10n4mrh8vf" class="animable"></path><path d="M169.68,188c0,3.32-.08,6.51-4.88,7.26,5.07-.07,4.68,3.12,4.93,7.12.14-4,.49-6.86,4.43-7.05C170.08,194.67,170.19,192.78,169.68,188Z" style="fill: rgb(17, 153, 142); transform-origin: 169.48px 195.19px 0px;" id="elg12dd80fho" class="animable"></path><path d="M188.67,223.11c.07,6.48-.16,12.72-9.52,14.17,9.89-.13,9.14,6.1,9.62,13.91.27-7.81.95-13.41,8.66-13.78C189.46,236.09,189.67,232.4,188.67,223.11Z" style="fill: rgb(224, 224, 224); transform-origin: 188.29px 237.15px 0px;" id="el0ezw7z2u5u2t" class="animable"></path><path d="M375.14,115.85c0,2.45-.06,4.81-3.6,5.36,3.74,0,3.45,2.31,3.64,5.26.1-3,.36-5.07,3.27-5.21C375.44,120.76,375.52,119.37,375.14,115.85Z" style="fill: rgb(235, 235, 235); transform-origin: 374.995px 121.16px 0px;" id="elau14hecmk7i" class="animable"></path><path d="M176.38,106.94c0,2.94-.07,5.77-4.32,6.43,4.49-.06,4.15,2.77,4.37,6.31.12-3.54.43-6.09,3.93-6.25C176.74,112.83,176.84,111.15,176.38,106.94Z" style="fill: rgb(235, 235, 235); transform-origin: 176.21px 113.31px 0px;" id="elsdubx0kq5n" class="animable"></path></g></g><g id="freepik--speech-bubble--inject-82" style="transform-origin: 421.004px 86.2478px 0px;" class="animable"><g id="freepik--speech-bubble--inject-82" style="transform-origin: 421.004px 86.2478px 0px;" class="animable"><g id="freepik--speech-bubble--inject-82" style="transform-origin: 421.004px 86.2478px 0px;" class="animable"><path d="M451.38,81a30.33,30.33,0,0,1-8.16,20.77l-2.52,2.39a30.36,30.36,0,0,1-42.89-42.7L400.2,59A30.36,30.36,0,0,1,451.38,81Z" style="fill: rgb(255, 255, 255); transform-origin: 421.003px 81.0836px 0px;" id="elawt6g6onw3o" class="animable"></path><path d="M420.92,48.13a33,33,0,0,0-5.34,65.47l3.72,9.54a1.92,1.92,0,0,0,3.58,0l3.67-9.56a33,33,0,0,0-5.63-65.45ZM451.38,81a30.33,30.33,0,0,1-8.16,20.77l-2.52,2.39a30.36,30.36,0,0,1-42.9-42.7L400.2,59A30.36,30.36,0,0,1,451.38,81Z" style="fill: rgb(69, 90, 100); transform-origin: 421.004px 86.2478px 0px;" id="elprnc9rdfmsm" class="animable"></path></g><g id="freepik--Drop--inject-82" style="transform-origin: 427.08px 80.9842px 0px;" class="animable"><path d="M427.1,64.19C420.36,72,415,79.76,415,86.18a12.09,12.09,0,0,0,24.16,0C439.18,79.76,433.84,72,427.1,64.19Z" style="fill: rgb(17, 153, 142); transform-origin: 427.08px 80.9842px 0px;" id="ell14p3ewhb49" class="animable"></path><g id="eld2lfwbf8mkg"><path d="M427.1,64.19C420.36,72,415,79.76,415,86.18a12.09,12.09,0,0,0,24.16,0C439.18,79.76,433.84,72,427.1,64.19Z" style="fill: rgb(255, 255, 255); opacity: 0.5; transform-origin: 427.08px 80.9842px 0px;" class="animable"></path></g></g><path id="freepik--Plus--inject-82" d="M410.87,78.36h-4.29V74.08a1.17,1.17,0,1,0-2.33,0v4.28H400a1.17,1.17,0,0,0,0,2.33h4.29V85a1.17,1.17,0,1,0,2.33,0V80.69h4.29a1.17,1.17,0,1,0,0-2.33Z" style="fill: rgb(17, 153, 142); transform-origin: 405.563px 79.54px 0px;" class="animable"></path></g></g><defs>     <filter id="active" height="200%">         <feMorphology in="SourceAlpha" result="DILATED" operator="dilate" radius="2"></feMorphology>                <feFlood flood-color="#32DFEC" flood-opacity="1" result="PINK"></feFlood>        <feComposite in="PINK" in2="DILATED" operator="in" result="OUTLINE"></feComposite>        <feMerge>            <feMergeNode in="OUTLINE"></feMergeNode>            <feMergeNode in="SourceGraphic"></feMergeNode>        </feMerge>    </filter>    <filter id="hover" height="200%">        <feMorphology in="SourceAlpha" result="DILATED" operator="dilate" radius="2"></feMorphology>                <feFlood flood-color="#ff0000" flood-opacity="0.5" result="PINK"></feFlood>        <feComposite in="PINK" in2="DILATED" operator="in" result="OUTLINE"></feComposite>        <feMerge>            <feMergeNode in="OUTLINE"></feMergeNode>            <feMergeNode in="SourceGraphic"></feMergeNode>        </feMerge>            <feColorMatrix type="matrix" values="0   0   0   0   0                0   1   0   0   0                0   0   0   0   0                0   0   0   1   0 "></feColorMatrix>    </filter></defs></svg>