<svg xmlns="http://www.w3.org/2000/svg" version="1.2" baseProfile="tiny" viewBox="26.7 55.4 458.62 401.2">
<path fill="var(--clr-dark)" d="   M 438.98 232.08   A 0.67 0.67 0.0 0 0 439.62 232.59   Q 453.52 232.60 468.44 232.57   Q 476.06 232.56 480.76 237.51   C 488.74 245.90 485.75 259.16 475.25 263.46   Q 471.96 264.80 464.38 264.67   Q 452.36 264.47 439.50 264.63   Q 428.63 264.76 419.50 264.76   Q 252.51 264.82 85.48 264.86   C 83.60 264.87 81.69 264.61 79.89 264.60   Q 62.82 264.54 44.39 264.64   Q 39.32 264.67 36.32 263.28   C 20.34 255.88 25.44 232.67 43.08 232.60   Q 57.84 232.54 72.28 232.60   A 0.80 0.78 7.0 0 0 73.05 232.01   Q 89.87 165.69 106.62 99.81   C 114.08 70.46 142.23 51.63 172.28 56.06   Q 179.36 57.11 189.48 61.15   Q 218.72 72.82 246.36 83.56   C 253.49 86.34 260.09 85.80 267.33 82.97   Q 293.85 72.60 321.99 61.38   Q 332.85 57.04 339.19 56.14   C 365.49 52.38 391.00 65.53 401.81 89.59   Q 404.31 95.16 407.16 106.49   Q 423.02 169.53 438.98 232.08   Z"/>
<path fill="var(--clr-dark)" d="   M 275.35 340.03   Q 256.74 330.48 236.91 339.82   Q 236.26 340.13 236.45 340.83   C 245.88 374.46 235.95 409.49 210.32 432.97   C 178.26 462.34 129.59 464.49 94.82 438.34   C 60.40 412.44 48.83 365.49 67.60 326.77   C 97.32 265.46 179.88 257.44 221.56 311.10   Q 221.90 311.54 222.40 311.30   Q 256.14 295.05 289.75 311.33   A 0.56 0.56 0.0 0 0 290.43 311.16   C 316.77 276.82 364.00 265.09 403.01 284.74   C 434.81 300.76 454.20 332.97 453.24 368.70   C 451.97 416.22 413.37 455.06 365.88 456.53   C 303.91 458.44 258.82 400.35 275.58 340.57   A 0.46 0.45 -68.5 0 0 275.35 340.03   Z"/>
</svg>