<svg xmlns="http://www.w3.org/2000/svg" version="1.2" baseProfile="tiny" viewBox="63.93 31.97 384.08 447.43">
<path fill="var(--clr-dark-400)" d="   M 256.53 59.06   Q 270.41 48.12 283.60 37.36   C 288.81 33.11 293.59 30.77 300.28 32.62   Q 307.77 34.70 310.96 42.35   Q 322.76 70.57 335.51 101.24   A 1.05 1.03 -6.3 0 0 336.32 101.87   C 360.68 105.54 386.01 111.56 407.84 120.84   C 420.92 126.40 435.17 134.31 443.22 145.77   C 455.33 163.03 442.33 179.03 428.12 188.37   C 409.63 200.51 387.41 207.64 364.46 212.79   Q 338.61 218.58 313.28 221.09   Q 239.20 228.43 170.27 217.25   Q 140.29 212.38 114.31 203.16   C 95.26 196.40 53.53 177.26 66.35 150.01   C 71.63 138.77 84.15 130.53 95.47 124.93   Q 111.79 116.87 130.75 111.54   Q 153.40 105.17 175.47 101.97   A 1.30 1.29 6.9 0 0 176.47 101.19   Q 188.44 72.73 200.06 44.51   Q 202.22 39.25 204.48 36.87   C 208.70 32.41 215.95 30.70 221.68 33.08   Q 224.79 34.37 228.46 37.37   Q 242.12 48.51 255.53 59.06   Q 256.03 59.45 256.53 59.06   Z"/>
<path fill="var(--clr-secondary)" d="   M 256.11 402.21   Q 271.83 345.30 286.99 289.21   C 288.46 283.77 289.69 278.57 294.51 275.16   Q 296.70 273.61 301.52 272.00   Q 345.11 257.46 388.24 243.09   Q 396.57 240.32 397.80 240.15   C 405.84 239.01 413.58 244.30 415.46 252.19   Q 417.56 261.06 410.68 267.95   Q 389.10 289.54 363.13 315.51   Q 362.61 316.02 363.34 316.03   Q 402.25 316.56 435.33 335.37   C 438.73 337.30 442.60 339.29 444.85 342.54   C 451.26 351.77 447.30 363.82 436.64 367.26   Q 394.00 381.00 354.28 403.46   C 321.60 421.94 292.34 444.47 268.65 473.18   C 263.63 479.26 255.27 481.26 248.40 477.43   Q 245.29 475.70 241.64 471.20   C 223.18 448.43 198.93 428.85 172.95 412.55   Q 127.33 383.95 74.19 366.86   Q 71.60 366.02 69.34 363.87   C 61.17 356.10 62.64 343.87 72.13 338.07   Q 107.48 316.45 148.68 316.05   Q 149.43 316.04 148.90 315.51   Q 125.02 291.65 101.22 267.84   C 88.67 255.28 100.95 235.32 117.78 240.96   Q 165.23 256.87 212.42 272.61   C 219.95 275.12 222.43 279.77 224.54 287.57   Q 239.58 343.12 255.88 402.21   Q 255.99 402.64 256.11 402.21   Z"/>
</svg>